<svg width="231" height="161" viewBox="0 0 231 161" fill="none" xmlns="http://www.w3.org/2000/svg">
    <g filter="url(#filter0_d_79_208)">
        <path
            d="M107.517 6.97774L107.517 6.97759C109.854 3.86308 112.763 2.5 115.479 2.5C118.195 2.5 121.104 3.86308 123.441 6.97759L123.441 6.97771L223.95 140.914C224.803 143.489 224.649 145.757 223.596 147.317C222.537 148.887 220.046 150.5 214.534 150.5H16.4306C10.854 150.5 8.41445 148.976 7.39089 147.487C6.3741 146.007 6.18797 143.755 7.03572 140.873L107.517 6.97774Z"
            fill="#FFCC4D" stroke="#FFA118" stroke-width="5" />
        <path
            d="M105.25 85.625V97H102.906L98.3359 89.375V97H95.9922V85.625H98.3359L102.914 93.2578V85.625H105.25ZM104.753 98.2L105.425 97.528L106.241 98.328L107.025 97.544L107.777 98.296L106.993 99.08L107.793 99.896L107.121 100.568L106.305 99.768L105.521 100.552L104.769 99.8L105.553 99.016L104.753 98.2ZM104.641 85.288L105.313 84.6L106.273 85.56L107.217 84.6L107.905 85.288L106.945 86.232L107.905 87.192L107.217 87.864L106.273 86.92L105.313 87.864L104.641 87.192L105.585 86.232L104.641 85.288ZM111.914 87.5703L108.82 97H106.328L110.555 85.625H112.141L111.914 87.5703ZM114.484 97L111.383 87.5703L111.133 85.625H112.734L116.984 97H114.484ZM114.344 92.7656V94.6016H108.336V92.7656H114.344ZM113.305 82.6172L114.602 82.7031C114.602 83.0833 114.526 83.4297 114.375 83.7422C114.224 84.0495 114.016 84.2969 113.75 84.4844C113.484 84.6667 113.18 84.7578 112.836 84.7578C112.586 84.7578 112.37 84.724 112.188 84.6562C112.01 84.5885 111.846 84.5104 111.695 84.4219C111.544 84.3281 111.388 84.2474 111.227 84.1797C111.07 84.112 110.891 84.0781 110.688 84.0781C110.505 84.0781 110.349 84.1432 110.219 84.2734C110.094 84.4036 110.031 84.5911 110.031 84.8359L108.727 84.7656C108.727 84.3906 108.802 84.0469 108.953 83.7344C109.104 83.4219 109.312 83.1719 109.578 82.9844C109.844 82.7917 110.146 82.6953 110.484 82.6953C110.698 82.6953 110.893 82.7318 111.07 82.8047C111.247 82.8724 111.417 82.9505 111.578 83.0391C111.745 83.1276 111.914 83.2057 112.086 83.2734C112.258 83.3411 112.44 83.375 112.633 83.375C112.815 83.375 112.971 83.3099 113.102 83.1797C113.237 83.0443 113.305 82.8568 113.305 82.6172ZM115.503 98.2L116.175 97.528L116.991 98.328L117.775 97.544L118.527 98.296L117.743 99.08L118.543 99.896L117.871 100.568L117.055 99.768L116.271 100.552L115.519 99.8L116.303 99.016L115.503 98.2ZM115.391 85.288L116.063 84.6L117.023 85.56L117.967 84.6L118.655 85.288L117.695 86.232L118.655 87.192L117.967 87.864L117.023 86.92L116.063 87.864L115.391 87.192L116.335 86.232L115.391 85.288ZM127.383 91.0469V91.5859C127.383 92.4505 127.266 93.2266 127.031 93.9141C126.797 94.6016 126.466 95.1875 126.039 95.6719C125.612 96.151 125.102 96.5182 124.508 96.7734C123.919 97.0286 123.266 97.1562 122.547 97.1562C121.833 97.1562 121.18 97.0286 120.586 96.7734C119.997 96.5182 119.487 96.151 119.055 95.6719C118.622 95.1875 118.286 94.6016 118.047 93.9141C117.812 93.2266 117.695 92.4505 117.695 91.5859V91.0469C117.695 90.1771 117.812 89.401 118.047 88.7188C118.281 88.0312 118.612 87.4453 119.039 86.9609C119.471 86.4766 119.982 86.1068 120.57 85.8516C121.164 85.5964 121.818 85.4688 122.531 85.4688C123.25 85.4688 123.904 85.5964 124.492 85.8516C125.086 86.1068 125.596 86.4766 126.023 86.9609C126.456 87.4453 126.789 88.0312 127.023 88.7188C127.263 89.401 127.383 90.1771 127.383 91.0469ZM125.016 91.5859V91.0312C125.016 90.4271 124.961 89.8958 124.852 89.4375C124.742 88.9792 124.581 88.5938 124.367 88.2812C124.154 87.9688 123.893 87.7344 123.586 87.5781C123.279 87.4167 122.927 87.3359 122.531 87.3359C122.135 87.3359 121.784 87.4167 121.477 87.5781C121.174 87.7344 120.917 87.9688 120.703 88.2812C120.495 88.5938 120.336 88.9792 120.227 89.4375C120.117 89.8958 120.062 90.4271 120.062 91.0312V91.5859C120.062 92.1849 120.117 92.7161 120.227 93.1797C120.336 93.638 120.497 94.026 120.711 94.3438C120.924 94.6562 121.185 94.8932 121.492 95.0547C121.799 95.2161 122.151 95.2969 122.547 95.2969C122.943 95.2969 123.294 95.2161 123.602 95.0547C123.909 94.8932 124.167 94.6562 124.375 94.3438C124.583 94.026 124.742 93.638 124.852 93.1797C124.961 92.7161 125.016 92.1849 125.016 91.5859ZM126.535 98.2L127.207 97.528L128.023 98.328L128.807 97.544L129.559 98.296L128.775 99.08L129.575 99.896L128.903 100.568L128.087 99.768L127.303 100.552L126.551 99.8L127.335 99.016L126.535 98.2ZM126.423 85.288L127.095 84.6L128.055 85.56L128.999 84.6L129.687 85.288L128.727 86.232L129.687 87.192L128.999 87.864L128.055 86.92L127.095 87.864L126.423 87.192L127.367 86.232L126.423 85.288ZM52.2456 117.2L52.9176 116.528L53.7336 117.328L54.5176 116.544L55.2696 117.296L54.4856 118.08L55.2856 118.896L54.6136 119.568L53.7976 118.768L53.0136 119.552L52.2616 118.8L53.0456 118.016L52.2456 117.2ZM52.1336 104.288L52.8056 103.6L53.7656 104.56L54.7096 103.6L55.3976 104.288L54.4376 105.232L55.3976 106.192L54.7096 106.864L53.7656 105.92L52.8056 106.864L52.1336 106.192L53.0776 105.232L52.1336 104.288ZM57.125 104.625V116H54.7812V104.625H57.125ZM61.6562 109.484V111.312H56.4844V109.484H61.6562ZM62.2031 104.625V106.461H56.4844V104.625H62.2031ZM61.0269 117.2L61.6989 116.528L62.5149 117.328L63.2989 116.544L64.0509 117.296L63.2669 118.08L64.0669 118.896L63.3949 119.568L62.5789 118.768L61.7949 119.552L61.0429 118.8L61.8269 118.016L61.0269 117.2ZM60.9149 104.288L61.5869 103.6L62.5469 104.56L63.4909 103.6L64.1789 104.288L63.2189 105.232L64.1789 106.192L63.4909 106.864L62.5469 105.92L61.5869 106.864L60.9149 106.192L61.8589 105.232L60.9149 104.288ZM72.9062 110.047V110.586C72.9062 111.451 72.7891 112.227 72.5547 112.914C72.3203 113.602 71.9896 114.188 71.5625 114.672C71.1354 115.151 70.625 115.518 70.0312 115.773C69.4427 116.029 68.7891 116.156 68.0703 116.156C67.3568 116.156 66.7031 116.029 66.1094 115.773C65.5208 115.518 65.0104 115.151 64.5781 114.672C64.1458 114.188 63.8099 113.602 63.5703 112.914C63.3359 112.227 63.2188 111.451 63.2188 110.586V110.047C63.2188 109.177 63.3359 108.401 63.5703 107.719C63.8047 107.031 64.1354 106.445 64.5625 105.961C64.9948 105.477 65.5052 105.107 66.0938 104.852C66.6875 104.596 67.3411 104.469 68.0547 104.469C68.7734 104.469 69.4271 104.596 70.0156 104.852C70.6094 105.107 71.1198 105.477 71.5469 105.961C71.9792 106.445 72.3125 107.031 72.5469 107.719C72.7865 108.401 72.9062 109.177 72.9062 110.047ZM70.5391 110.586V110.031C70.5391 109.427 70.4844 108.896 70.375 108.438C70.2656 107.979 70.1042 107.594 69.8906 107.281C69.6771 106.969 69.4167 106.734 69.1094 106.578C68.8021 106.417 68.4505 106.336 68.0547 106.336C67.6589 106.336 67.3073 106.417 67 106.578C66.6979 106.734 66.4401 106.969 66.2266 107.281C66.0182 107.594 65.8594 107.979 65.75 108.438C65.6406 108.896 65.5859 109.427 65.5859 110.031V110.586C65.5859 111.185 65.6406 111.716 65.75 112.18C65.8594 112.638 66.0208 113.026 66.2344 113.344C66.4479 113.656 66.7083 113.893 67.0156 114.055C67.3229 114.216 67.6745 114.297 68.0703 114.297C68.4661 114.297 68.8177 114.216 69.125 114.055C69.4323 113.893 69.6901 113.656 69.8984 113.344C70.1068 113.026 70.2656 112.638 70.375 112.18C70.4844 111.716 70.5391 111.185 70.5391 110.586ZM72.0581 117.2L72.7301 116.528L73.5461 117.328L74.3301 116.544L75.0821 117.296L74.2981 118.08L75.0981 118.896L74.4261 119.568L73.6101 118.768L72.8261 119.552L72.0741 118.8L72.8581 118.016L72.0581 117.2ZM71.9461 104.288L72.6181 103.6L73.5781 104.56L74.5221 103.6L75.2101 104.288L74.2501 105.232L75.2101 106.192L74.5221 106.864L73.5781 105.92L72.6181 106.864L71.9461 106.192L72.8901 105.232L71.9461 104.288ZM77.0859 104.625V116H74.75V104.625H77.0859ZM76.7456 117.2L77.4176 116.528L78.2336 117.328L79.0176 116.544L79.7696 117.296L78.9856 118.08L79.7856 118.896L79.1136 119.568L78.2976 118.768L77.5136 119.552L76.7616 118.8L77.5456 118.016L76.7456 117.2ZM76.6336 104.288L77.3056 103.6L78.2656 104.56L79.2096 103.6L79.8976 104.288L78.9376 105.232L79.8976 106.192L79.2096 106.864L78.2656 105.92L77.3056 106.864L76.6336 106.192L77.5776 105.232L76.6336 104.288ZM84.7144 117.2L85.3864 116.528L86.2024 117.328L86.9864 116.544L87.7384 117.296L86.9544 118.08L87.7544 118.896L87.0824 119.568L86.2664 118.768L85.4824 119.552L84.7304 118.8L85.5144 118.016L84.7144 117.2ZM84.6024 104.288L85.2744 103.6L86.2344 104.56L87.1784 103.6L87.8664 104.288L86.9064 105.232L87.8664 106.192L87.1784 106.864L86.2344 105.92L85.2744 106.864L84.6024 106.192L85.5464 105.232L84.6024 104.288ZM90.7422 116H88.2656L88.2812 114.172H90.7422C91.3568 114.172 91.875 114.034 92.2969 113.758C92.7188 113.477 93.0365 113.068 93.25 112.531C93.4688 111.995 93.5781 111.346 93.5781 110.586V110.031C93.5781 109.448 93.5156 108.935 93.3906 108.492C93.2708 108.049 93.0911 107.677 92.8516 107.375C92.612 107.073 92.3177 106.846 91.9688 106.695C91.6198 106.539 91.2188 106.461 90.7656 106.461H88.2188V104.625H90.7656C91.526 104.625 92.2214 104.755 92.8516 105.016C93.487 105.271 94.0365 105.638 94.5 106.117C94.9635 106.596 95.3203 107.169 95.5703 107.836C95.8255 108.497 95.9531 109.234 95.9531 110.047V110.586C95.9531 111.393 95.8255 112.13 95.5703 112.797C95.3203 113.464 94.9635 114.036 94.5 114.516C94.0417 114.99 93.4922 115.357 92.8516 115.617C92.2161 115.872 91.513 116 90.7422 116ZM89.5938 104.625V116H87.25V104.625H89.5938ZM95.1206 117.2L95.7926 116.528L96.6086 117.328L97.3926 116.544L98.1446 117.296L97.3606 118.08L98.1606 118.896L97.4886 119.568L96.6726 118.768L95.8886 119.552L95.1366 118.8L95.9206 118.016L95.1206 117.2ZM95.0086 104.288L95.6806 103.6L96.6406 104.56L97.5846 103.6L98.2726 104.288L97.3126 105.232L98.2726 106.192L97.5846 106.864L96.6406 105.92L95.6806 106.864L95.0086 106.192L95.9526 105.232L95.0086 104.288ZM105.289 114.172V116H99.2344V114.172H105.289ZM100 104.625V116H97.6562V104.625H100ZM104.5 109.258V111.039H99.2344V109.258H104.5ZM105.281 104.625V106.461H99.2344V104.625H105.281ZM104.121 117.2L104.793 116.528L105.609 117.328L106.393 116.544L107.145 117.296L106.361 118.08L107.161 118.896L106.489 119.568L105.673 118.768L104.889 119.552L104.137 118.8L104.921 118.016L104.121 117.2ZM104.009 104.288L104.681 103.6L105.641 104.56L106.585 103.6L107.273 104.288L106.313 105.232L107.273 106.192L106.585 106.864L105.641 105.92L104.681 106.864L104.009 106.192L104.953 105.232L104.009 104.288ZM112.578 113.023C112.578 112.82 112.547 112.638 112.484 112.477C112.427 112.31 112.318 112.159 112.156 112.023C111.995 111.883 111.768 111.745 111.477 111.609C111.185 111.474 110.807 111.333 110.344 111.188C109.828 111.021 109.339 110.833 108.875 110.625C108.417 110.417 108.01 110.174 107.656 109.898C107.307 109.617 107.031 109.292 106.828 108.922C106.63 108.552 106.531 108.122 106.531 107.633C106.531 107.159 106.635 106.729 106.844 106.344C107.052 105.953 107.344 105.62 107.719 105.344C108.094 105.062 108.536 104.846 109.047 104.695C109.562 104.544 110.128 104.469 110.742 104.469C111.581 104.469 112.312 104.62 112.938 104.922C113.562 105.224 114.047 105.638 114.391 106.164C114.74 106.69 114.914 107.292 114.914 107.969H112.586C112.586 107.635 112.516 107.344 112.375 107.094C112.24 106.839 112.031 106.638 111.75 106.492C111.474 106.346 111.125 106.273 110.703 106.273C110.297 106.273 109.958 106.336 109.688 106.461C109.417 106.581 109.214 106.745 109.078 106.953C108.943 107.156 108.875 107.385 108.875 107.641C108.875 107.833 108.922 108.008 109.016 108.164C109.115 108.32 109.26 108.466 109.453 108.602C109.646 108.737 109.883 108.865 110.164 108.984C110.445 109.104 110.771 109.221 111.141 109.336C111.76 109.523 112.305 109.734 112.773 109.969C113.247 110.203 113.643 110.466 113.961 110.758C114.279 111.049 114.518 111.38 114.68 111.75C114.841 112.12 114.922 112.539 114.922 113.008C114.922 113.503 114.826 113.945 114.633 114.336C114.44 114.727 114.161 115.057 113.797 115.328C113.432 115.599 112.997 115.805 112.492 115.945C111.987 116.086 111.422 116.156 110.797 116.156C110.234 116.156 109.68 116.083 109.133 115.938C108.586 115.786 108.089 115.56 107.641 115.258C107.198 114.956 106.844 114.57 106.578 114.102C106.312 113.633 106.18 113.078 106.18 112.438H108.531C108.531 112.792 108.586 113.091 108.695 113.336C108.805 113.581 108.958 113.779 109.156 113.93C109.359 114.081 109.599 114.19 109.875 114.258C110.156 114.326 110.464 114.359 110.797 114.359C111.203 114.359 111.536 114.302 111.797 114.188C112.062 114.073 112.258 113.914 112.383 113.711C112.513 113.508 112.578 113.279 112.578 113.023ZM113.98 117.2L114.652 116.528L115.468 117.328L116.252 116.544L117.004 117.296L116.22 118.08L117.02 118.896L116.348 119.568L115.532 118.768L114.748 119.552L113.996 118.8L114.78 118.016L113.98 117.2ZM113.868 104.288L114.54 103.6L115.5 104.56L116.444 103.6L117.132 104.288L116.172 105.232L117.132 106.192L116.444 106.864L115.5 105.92L114.54 106.864L113.868 106.192L114.812 105.232L113.868 104.288ZM122.438 113.023C122.438 112.82 122.406 112.638 122.344 112.477C122.286 112.31 122.177 112.159 122.016 112.023C121.854 111.883 121.628 111.745 121.336 111.609C121.044 111.474 120.667 111.333 120.203 111.188C119.688 111.021 119.198 110.833 118.734 110.625C118.276 110.417 117.87 110.174 117.516 109.898C117.167 109.617 116.891 109.292 116.688 108.922C116.49 108.552 116.391 108.122 116.391 107.633C116.391 107.159 116.495 106.729 116.703 106.344C116.911 105.953 117.203 105.62 117.578 105.344C117.953 105.062 118.396 104.846 118.906 104.695C119.422 104.544 119.987 104.469 120.602 104.469C121.44 104.469 122.172 104.62 122.797 104.922C123.422 105.224 123.906 105.638 124.25 106.164C124.599 106.69 124.773 107.292 124.773 107.969H122.445C122.445 107.635 122.375 107.344 122.234 107.094C122.099 106.839 121.891 106.638 121.609 106.492C121.333 106.346 120.984 106.273 120.562 106.273C120.156 106.273 119.818 106.336 119.547 106.461C119.276 106.581 119.073 106.745 118.938 106.953C118.802 107.156 118.734 107.385 118.734 107.641C118.734 107.833 118.781 108.008 118.875 108.164C118.974 108.32 119.12 108.466 119.312 108.602C119.505 108.737 119.742 108.865 120.023 108.984C120.305 109.104 120.63 109.221 121 109.336C121.62 109.523 122.164 109.734 122.633 109.969C123.107 110.203 123.503 110.466 123.82 110.758C124.138 111.049 124.378 111.38 124.539 111.75C124.701 112.12 124.781 112.539 124.781 113.008C124.781 113.503 124.685 113.945 124.492 114.336C124.299 114.727 124.021 115.057 123.656 115.328C123.292 115.599 122.857 115.805 122.352 115.945C121.846 116.086 121.281 116.156 120.656 116.156C120.094 116.156 119.539 116.083 118.992 115.938C118.445 115.786 117.948 115.56 117.5 115.258C117.057 114.956 116.703 114.57 116.438 114.102C116.172 113.633 116.039 113.078 116.039 112.438H118.391C118.391 112.792 118.445 113.091 118.555 113.336C118.664 113.581 118.818 113.779 119.016 113.93C119.219 114.081 119.458 114.19 119.734 114.258C120.016 114.326 120.323 114.359 120.656 114.359C121.062 114.359 121.396 114.302 121.656 114.188C121.922 114.073 122.117 113.914 122.242 113.711C122.372 113.508 122.438 113.279 122.438 113.023ZM123.839 117.2L124.511 116.528L125.327 117.328L126.111 116.544L126.863 117.296L126.079 118.08L126.879 118.896L126.207 119.568L125.391 118.768L124.607 119.552L123.855 118.8L124.639 118.016L123.839 117.2ZM123.727 104.288L124.399 103.6L125.359 104.56L126.303 103.6L126.991 104.288L126.031 105.232L126.991 106.192L126.303 106.864L125.359 105.92L124.399 106.864L123.727 106.192L124.671 105.232L123.727 104.288ZM131 106.57L127.906 116H125.414L129.641 104.625H131.227L131 106.57ZM133.57 116L130.469 106.57L130.219 104.625H131.82L136.07 116H133.57ZM133.43 111.766V113.602H127.422V111.766H133.43ZM134.589 117.2L135.261 116.528L136.077 117.328L136.861 116.544L137.613 117.296L136.829 118.08L137.629 118.896L136.957 119.568L136.141 118.768L135.357 119.552L134.605 118.8L135.389 118.016L134.589 117.2ZM134.477 104.288L135.149 103.6L136.109 104.56L137.053 103.6L137.741 104.288L136.781 105.232L137.741 106.192L137.053 106.864L136.109 105.92L135.149 106.864L134.477 106.192L135.421 105.232L134.477 104.288ZM138.574 117.2L139.246 116.528L140.062 117.328L140.846 116.544L141.598 117.296L140.814 118.08L141.614 118.896L140.942 119.568L140.126 118.768L139.342 119.552L138.59 118.8L139.374 118.016L138.574 117.2ZM138.462 104.288L139.134 103.6L140.094 104.56L141.038 103.6L141.726 104.288L140.766 105.232L141.726 106.192L141.038 106.864L140.094 105.92L139.134 106.864L138.462 106.192L139.406 105.232L138.462 104.288ZM145.211 113.625L147.891 104.625H150.5L146.539 116H144.82L145.211 113.625ZM142.742 104.625L145.414 113.625L145.82 116H144.086L140.148 104.625H142.742ZM149.027 117.2L149.699 116.528L150.515 117.328L151.299 116.544L152.051 117.296L151.267 118.08L152.067 118.896L151.395 119.568L150.579 118.768L149.795 119.552L149.043 118.8L149.827 118.016L149.027 117.2ZM148.915 104.288L149.587 103.6L150.547 104.56L151.491 103.6L152.179 104.288L151.219 105.232L152.179 106.192L151.491 106.864L150.547 105.92L149.587 106.864L148.915 106.192L149.859 105.232L148.915 104.288ZM159.195 114.172V116H153.141V114.172H159.195ZM153.906 104.625V116H151.562V104.625H153.906ZM158.406 109.258V111.039H153.141V109.258H158.406ZM159.188 104.625V106.461H153.141V104.625H159.188ZM158.027 117.2L158.699 116.528L159.515 117.328L160.299 116.544L161.051 117.296L160.267 118.08L161.067 118.896L160.395 119.568L159.579 118.768L158.795 119.552L158.043 118.8L158.827 118.016L158.027 117.2ZM157.915 104.288L158.587 103.6L159.547 104.56L160.491 103.6L161.179 104.288L160.219 105.232L161.179 106.192L160.491 106.864L159.547 105.92L158.587 106.864L157.915 106.192L158.859 105.232L157.915 104.288ZM168.789 114.172V116H160.727V114.172H168.789ZM168.672 105.93L161.766 116H160.117V114.656L167.078 104.625H168.672V105.93ZM167.867 104.625V106.461H160.125V104.625H167.867ZM167.746 117.2L168.418 116.528L169.234 117.328L170.018 116.544L170.77 117.296L169.986 118.08L170.786 118.896L170.114 119.568L169.298 118.768L168.514 119.552L167.762 118.8L168.546 118.016L167.746 117.2ZM167.634 104.288L168.306 103.6L169.266 104.56L170.21 103.6L170.898 104.288L169.938 105.232L170.898 106.192L170.21 106.864L169.266 105.92L168.306 106.864L167.634 106.192L168.578 105.232L167.634 104.288ZM37.0425 136.2L37.7145 135.528L38.5305 136.328L39.3145 135.544L40.0665 136.296L39.2825 137.08L40.0825 137.896L39.4105 138.568L38.5945 137.768L37.8105 138.552L37.0585 137.8L37.8425 137.016L37.0425 136.2ZM36.9305 123.288L37.6025 122.6L38.5625 123.56L39.5065 122.6L40.1945 123.288L39.2345 124.232L40.1945 125.192L39.5065 125.864L38.5625 124.92L37.6025 125.864L36.9305 125.192L37.8745 124.232L36.9305 123.288ZM44.6641 123.625V135H42.3281V123.625H44.6641ZM48.1641 123.625V125.461H38.8828V123.625H48.1641ZM46.9644 136.2L47.6364 135.528L48.4524 136.328L49.2364 135.544L49.9884 136.296L49.2044 137.08L50.0044 137.896L49.3324 138.568L48.5164 137.768L47.7324 138.552L46.9804 137.8L47.7644 137.016L46.9644 136.2ZM46.8524 123.288L47.5244 122.6L48.4844 123.56L49.4284 122.6L50.1164 123.288L49.1564 124.232L50.1164 125.192L49.4284 125.864L48.4844 124.92L47.5244 125.864L46.8524 125.192L47.7964 124.232L46.8524 123.288ZM57.1328 133.172V135H51.0781V133.172H57.1328ZM51.8438 123.625V135H49.5V123.625H51.8438ZM56.3438 128.258V130.039H51.0781V128.258H56.3438ZM57.125 123.625V125.461H51.0781V123.625H57.125ZM55.9644 136.2L56.6364 135.528L57.4524 136.328L58.2364 135.544L58.9884 136.296L58.2044 137.08L59.0044 137.896L58.3324 138.568L57.5164 137.768L56.7324 138.552L55.9804 137.8L56.7644 137.016L55.9644 136.2ZM55.8524 123.288L56.5244 122.6L57.4844 123.56L58.4284 122.6L59.1164 123.288L58.1564 124.232L59.1164 125.192L58.4284 125.864L57.4844 124.92L56.5244 125.864L55.8524 125.192L56.7964 124.232L55.8524 123.288ZM67.7578 123.625V135H65.4141L60.8438 127.375V135H58.5V123.625H60.8438L65.4219 131.258V123.625H67.7578ZM67.2612 136.2L67.9332 135.528L68.7492 136.328L69.5333 135.544L70.2853 136.296L69.5013 137.08L70.3013 137.896L69.6293 138.568L68.8133 137.768L68.0292 138.552L67.2772 137.8L68.0612 137.016L67.2612 136.2ZM67.1492 123.288L67.8212 122.6L68.7812 123.56L69.7253 122.6L70.4133 123.288L69.4533 124.232L70.4133 125.192L69.7253 125.864L68.7812 124.92L67.8212 125.864L67.1492 125.192L68.0932 124.232L67.1492 123.288ZM74.8828 123.625V135H72.5469V123.625H74.8828ZM78.3828 123.625V125.461H69.1016V123.625H78.3828ZM77.1831 136.2L77.8551 135.528L78.6711 136.328L79.4551 135.544L80.2071 136.296L79.4231 137.08L80.2231 137.896L79.5511 138.568L78.7351 137.768L77.9511 138.552L77.1991 137.8L77.9831 137.016L77.1831 136.2ZM77.0711 123.288L77.7431 122.6L78.7031 123.56L79.6471 122.6L80.3351 123.288L79.3751 124.232L80.3351 125.192L79.6471 125.864L78.7031 124.92L77.7431 125.864L77.0711 125.192L78.0151 124.232L77.0711 123.288ZM87.3516 133.172V135H81.2969V133.172H87.3516ZM82.0625 123.625V135H79.7188V123.625H82.0625ZM86.5625 128.258V130.039H81.2969V128.258H86.5625ZM87.3438 123.625V125.461H81.2969V123.625H87.3438ZM86.1831 136.2L86.8551 135.528L87.6711 136.328L88.4551 135.544L89.2071 136.296L88.4231 137.08L89.2231 137.896L88.5511 138.568L87.7351 137.768L86.9511 138.552L86.1991 137.8L86.9831 137.016L86.1831 136.2ZM86.0711 123.288L86.7431 122.6L87.7031 123.56L88.6471 122.6L89.3351 123.288L88.3751 124.232L89.3351 125.192L88.6471 125.864L87.7031 124.92L86.7431 125.864L86.0711 125.192L87.0151 124.232L86.0711 123.288ZM94.1519 136.2L94.8239 135.528L95.6399 136.328L96.4239 135.544L97.1759 136.296L96.3919 137.08L97.1919 137.896L96.5199 138.568L95.7039 137.768L94.9199 138.552L94.1679 137.8L94.9519 137.016L94.1519 136.2ZM94.0399 123.288L94.7119 122.6L95.6719 123.56L96.6159 122.6L97.3039 123.288L96.3439 124.232L97.3039 125.192L96.6159 125.864L95.6719 124.92L94.7119 125.864L94.0399 125.192L94.9839 124.232L94.0399 123.288ZM105.945 123.625V135H103.602L99.0312 127.375V135H96.6875V123.625H99.0312L103.609 131.258V123.625H105.945ZM105.449 136.2L106.121 135.528L106.937 136.328L107.721 135.544L108.473 136.296L107.689 137.08L108.489 137.896L107.817 138.568L107.001 137.768L106.217 138.552L105.465 137.8L106.249 137.016L105.449 136.2ZM105.337 123.288L106.009 122.6L106.969 123.56L107.913 122.6L108.601 123.288L107.641 124.232L108.601 125.192L107.913 125.864L106.969 124.92L106.009 125.864L105.337 125.192L106.281 124.232L105.337 123.288ZM117.328 129.047V129.586C117.328 130.451 117.211 131.227 116.977 131.914C116.742 132.602 116.411 133.188 115.984 133.672C115.557 134.151 115.047 134.518 114.453 134.773C113.865 135.029 113.211 135.156 112.492 135.156C111.779 135.156 111.125 135.029 110.531 134.773C109.943 134.518 109.432 134.151 109 133.672C108.568 133.188 108.232 132.602 107.992 131.914C107.758 131.227 107.641 130.451 107.641 129.586V129.047C107.641 128.177 107.758 127.401 107.992 126.719C108.227 126.031 108.557 125.445 108.984 124.961C109.417 124.477 109.927 124.107 110.516 123.852C111.109 123.596 111.763 123.469 112.477 123.469C113.195 123.469 113.849 123.596 114.438 123.852C115.031 124.107 115.542 124.477 115.969 124.961C116.401 125.445 116.734 126.031 116.969 126.719C117.208 127.401 117.328 128.177 117.328 129.047ZM114.961 129.586V129.031C114.961 128.427 114.906 127.896 114.797 127.438C114.688 126.979 114.526 126.594 114.312 126.281C114.099 125.969 113.839 125.734 113.531 125.578C113.224 125.417 112.872 125.336 112.477 125.336C112.081 125.336 111.729 125.417 111.422 125.578C111.12 125.734 110.862 125.969 110.648 126.281C110.44 126.594 110.281 126.979 110.172 127.438C110.062 127.896 110.008 128.427 110.008 129.031V129.586C110.008 130.185 110.062 130.716 110.172 131.18C110.281 131.638 110.443 132.026 110.656 132.344C110.87 132.656 111.13 132.893 111.438 133.055C111.745 133.216 112.096 133.297 112.492 133.297C112.888 133.297 113.24 133.216 113.547 133.055C113.854 132.893 114.112 132.656 114.32 132.344C114.529 132.026 114.688 131.638 114.797 131.18C114.906 130.716 114.961 130.185 114.961 129.586ZM116.48 136.2L117.152 135.528L117.968 136.328L118.752 135.544L119.504 136.296L118.72 137.08L119.52 137.896L118.848 138.568L118.032 137.768L117.248 138.552L116.496 137.8L117.28 137.016L116.48 136.2ZM116.368 123.288L117.04 122.6L118 123.56L118.944 122.6L119.632 123.288L118.672 124.232L119.632 125.192L118.944 125.864L118 124.92L117.04 125.864L116.368 125.192L117.312 124.232L116.368 123.288ZM123.117 132.625L125.797 123.625H128.406L124.445 135H122.727L123.117 132.625ZM120.648 123.625L123.32 132.625L123.727 135H121.992L118.055 123.625H120.648ZM126.933 136.2L127.605 135.528L128.421 136.328L129.205 135.544L129.957 136.296L129.173 137.08L129.973 137.896L129.301 138.568L128.485 137.768L127.701 138.552L126.949 137.8L127.733 137.016L126.933 136.2ZM126.821 123.288L127.493 122.6L128.453 123.56L129.397 122.6L130.085 123.288L129.125 124.232L130.085 125.192L129.397 125.864L128.453 124.92L127.493 125.864L126.821 125.192L127.765 124.232L126.821 123.288ZM134.094 125.57L131 135H128.508L132.734 123.625H134.32L134.094 125.57ZM136.664 135L133.562 125.57L133.312 123.625H134.914L139.164 135H136.664ZM136.523 130.766V132.602H130.516V130.766H136.523ZM137.683 136.2L138.355 135.528L139.171 136.328L139.955 135.544L140.707 136.296L139.923 137.08L140.723 137.896L140.051 138.568L139.235 137.768L138.451 138.552L137.699 137.8L138.483 137.016L137.683 136.2ZM137.571 123.288L138.243 122.6L139.203 123.56L140.147 122.6L140.835 123.288L139.875 124.232L140.835 125.192L140.147 125.864L139.203 124.92L138.243 125.864L137.571 125.192L138.515 124.232L137.571 123.288ZM141.289 123.625H143.273L146.195 131.977L149.117 123.625H151.102L146.992 135H145.398L141.289 123.625ZM140.219 123.625H142.195L142.555 131.766V135H140.219V123.625ZM150.195 123.625H152.18V135H149.836V131.766L150.195 123.625ZM151.699 136.2L152.371 135.528L153.187 136.328L153.971 135.544L154.723 136.296L153.939 137.08L154.739 137.896L154.067 138.568L153.251 137.768L152.467 138.552L151.715 137.8L152.499 137.016L151.699 136.2ZM151.587 123.288L152.259 122.6L153.219 123.56L154.163 122.6L154.851 123.288L153.891 124.232L154.851 125.192L154.163 125.864L153.219 124.92L152.259 125.864L151.587 125.192L152.531 124.232L151.587 123.288ZM161.867 133.172V135H155.812V133.172H161.867ZM156.578 123.625V135H154.234V123.625H156.578ZM161.078 128.258V130.039H155.812V128.258H161.078ZM161.859 123.625V125.461H155.812V123.625H161.859ZM160.699 136.2L161.371 135.528L162.187 136.328L162.971 135.544L163.723 136.296L162.939 137.08L163.739 137.896L163.067 138.568L162.251 137.768L161.467 138.552L160.715 137.8L161.499 137.016L160.699 136.2ZM160.587 123.288L161.259 122.6L162.219 123.56L163.163 122.6L163.851 123.288L162.891 124.232L163.851 125.192L163.163 125.864L162.219 124.92L161.259 125.864L160.587 125.192L161.531 124.232L160.587 123.288ZM172.492 123.625V135H170.148L165.578 127.375V135H163.234V123.625H165.578L170.156 131.258V123.625H172.492ZM171.996 136.2L172.668 135.528L173.484 136.328L174.268 135.544L175.02 136.296L174.236 137.08L175.036 137.896L174.364 138.568L173.548 137.768L172.764 138.552L172.012 137.8L172.796 137.016L171.996 136.2ZM171.884 123.288L172.556 122.6L173.516 123.56L174.46 122.6L175.148 123.288L174.188 124.232L175.148 125.192L174.46 125.864L173.516 124.92L172.556 125.864L171.884 125.192L172.828 124.232L171.884 123.288ZM179.617 123.625V135H177.281V123.625H179.617ZM183.117 123.625V125.461H173.836V123.625H183.117ZM181.917 136.2L182.589 135.528L183.405 136.328L184.19 135.544L184.942 136.296L184.158 137.08L184.958 137.896L184.286 138.568L183.47 137.768L182.685 138.552L181.933 137.8L182.717 137.016L181.917 136.2ZM181.805 123.288L182.477 122.6L183.438 123.56L184.382 122.6L185.07 123.288L184.11 124.232L185.07 125.192L184.382 125.864L183.438 124.92L182.477 125.864L181.805 125.192L182.749 124.232L181.805 123.288ZM192.086 133.172V135H186.031V133.172H192.086ZM186.797 123.625V135H184.453V123.625H186.797ZM191.297 128.258V130.039H186.031V128.258H191.297ZM192.078 123.625V125.461H186.031V123.625H192.078ZM190.917 136.2L191.589 135.528L192.405 136.328L193.19 135.544L193.942 136.296L193.158 137.08L193.958 137.896L193.286 138.568L192.47 137.768L191.685 138.552L190.933 137.8L191.717 137.016L190.917 136.2ZM190.805 123.288L191.477 122.6L192.438 123.56L193.382 122.6L194.07 123.288L193.11 124.232L194.07 125.192L193.382 125.864L192.438 124.92L191.477 125.864L190.805 125.192L191.749 124.232L190.805 123.288Z"
            fill="black" />
        <g filter="url(#filter1_d_79_208)">
            <path
                d="M115 72C124.941 72 133 63.9411 133 54C133 44.0589 124.941 36 115 36C105.059 36 97 44.0589 97 54C97 63.9411 105.059 72 115 72Z"
                fill="#FFCC4D" />
            <path
                d="M132.25 54C132.25 63.5269 124.527 71.25 115 71.25C105.473 71.25 97.75 63.5269 97.75 54C97.75 44.4731 105.473 36.75 115 36.75C124.527 36.75 132.25 44.4731 132.25 54Z"
                stroke="#FCAB40" stroke-width="1.5" />
        </g>
        <path
            d="M107.515 59.621C107.56 59.8 108.683 64 115 64C121.318 64 122.44 59.8 122.485 59.621C122.54 59.404 122.442 59.179 122.248 59.067C122.053 58.956 121.809 58.989 121.648 59.144C121.629 59.163 119.694 61 115 61C110.306 61 108.37 59.163 108.352 59.145C108.256 59.05 108.128 59 108 59C107.916 59 107.831 59.021 107.754 59.064C107.558 59.176 107.46 59.403 107.515 59.621Z"
            fill="#664500" />
        <path
            d="M109 53C110.381 53 111.5 51.433 111.5 49.5C111.5 47.567 110.381 46 109 46C107.619 46 106.5 47.567 106.5 49.5C106.5 51.433 107.619 53 109 53Z"
            fill="#664500" />
        <path
            d="M121 53C122.381 53 123.5 51.433 123.5 49.5C123.5 47.567 122.381 46 121 46C119.619 46 118.5 47.567 118.5 49.5C118.5 51.433 119.619 53 121 53Z"
            fill="#664500" />
    </g>
    <defs>
        <filter id="filter0_d_79_208" x="0" y="0" width="231" height="161"
            filterUnits="userSpaceOnUse" color-interpolation-filters="sRGB">
            <feFlood flood-opacity="0" result="BackgroundImageFix" />
            <feColorMatrix in="SourceAlpha" type="matrix"
                values="0 0 0 0 0 0 0 0 0 0 0 0 0 0 0 0 0 0 127 0" result="hardAlpha" />
            <feOffset dy="4" />
            <feGaussianBlur stdDeviation="2" />
            <feComposite in2="hardAlpha" operator="out" />
            <feColorMatrix type="matrix" values="0 0 0 0 0 0 0 0 0 0 0 0 0 0 0 0 0 0 0.25 0" />
            <feBlend mode="normal" in2="BackgroundImageFix" result="effect1_dropShadow_79_208" />
            <feBlend mode="normal" in="SourceGraphic" in2="effect1_dropShadow_79_208" result="shape" />
        </filter>
        <filter id="filter1_d_79_208" x="93" y="36" width="44" height="44"
            filterUnits="userSpaceOnUse" color-interpolation-filters="sRGB">
            <feFlood flood-opacity="0" result="BackgroundImageFix" />
            <feColorMatrix in="SourceAlpha" type="matrix"
                values="0 0 0 0 0 0 0 0 0 0 0 0 0 0 0 0 0 0 127 0" result="hardAlpha" />
            <feOffset dy="4" />
            <feGaussianBlur stdDeviation="2" />
            <feComposite in2="hardAlpha" operator="out" />
            <feColorMatrix type="matrix" values="0 0 0 0 0 0 0 0 0 0 0 0 0 0 0 0 0 0 0.25 0" />
            <feBlend mode="normal" in2="BackgroundImageFix" result="effect1_dropShadow_79_208" />
            <feBlend mode="normal" in="SourceGraphic" in2="effect1_dropShadow_79_208" result="shape" />
        </filter>
    </defs>
</svg>
