<svg width="240" height="161" viewBox="0 0 240 161" fill="none" xmlns="http://www.w3.org/2000/svg">
    <g filter="url(#filter0_d_75_1258)">
        <path
            d="M112.517 6.97774L112.517 6.97759C114.854 3.86308 117.763 2.5 120.479 2.5C123.195 2.5 126.104 3.86308 128.441 6.97759L128.441 6.97771L228.95 140.914C229.803 143.489 229.649 145.757 228.596 147.317C227.537 148.887 225.046 150.5 219.534 150.5H21.4306C15.854 150.5 13.4144 148.976 12.3909 147.487C11.3741 146.007 11.188 143.755 12.0357 140.873L112.517 6.97774Z"
            fill="#FFCC4D" stroke="#FFA118" stroke-width="5" />
        <path
            d="M72.1094 92.9453H69.2109V91.1172H72.1094C72.5573 91.1172 72.9219 91.0443 73.2031 90.8984C73.4844 90.7474 73.6901 90.5391 73.8203 90.2734C73.9505 90.0078 74.0156 89.7083 74.0156 89.375C74.0156 89.0365 73.9505 88.7214 73.8203 88.4297C73.6901 88.138 73.4844 87.9036 73.2031 87.7266C72.9219 87.5495 72.5573 87.4609 72.1094 87.4609H70.0234V97H67.6797V85.625H72.1094C73 85.625 73.763 85.7865 74.3984 86.1094C75.0391 86.4271 75.5286 86.8672 75.8672 87.4297C76.2057 87.9922 76.375 88.6354 76.375 89.3594C76.375 90.0938 76.2057 90.7292 75.8672 91.2656C75.5286 91.8021 75.0391 92.2161 74.3984 92.5078C73.763 92.7995 73 92.9453 72.1094 92.9453ZM75.4566 98.2L76.1286 97.528L76.9446 98.328L77.7286 97.544L78.4806 98.296L77.6966 99.08L78.4966 99.896L77.8246 100.568L77.0086 99.768L76.2246 100.552L75.4726 99.8L76.2566 99.016L75.4566 98.2ZM75.3446 85.288L76.0166 84.6L76.9766 85.56L77.9206 84.6L78.6086 85.288L77.6486 86.232L78.6086 87.192L77.9206 87.864L76.9766 86.92L76.0166 87.864L75.3446 87.192L76.2886 86.232L75.3446 85.288ZM82.6172 87.5703L79.5234 97H77.0312L81.2578 85.625H82.8438L82.6172 87.5703ZM85.1875 97L82.0859 87.5703L81.8359 85.625H83.4375L87.6875 97H85.1875ZM85.0469 92.7656V94.6016H79.0391V92.7656H85.0469ZM86.2066 98.2L86.8786 97.528L87.6946 98.328L88.4786 97.544L89.2306 98.296L88.4466 99.08L89.2466 99.896L88.5746 100.568L87.7586 99.768L86.9746 100.552L86.2226 99.8L87.0066 99.016L86.2066 98.2ZM86.0946 85.288L86.7666 84.6L87.7266 85.56L88.6706 84.6L89.3586 85.288L88.3986 86.232L89.3586 87.192L88.6706 87.864L87.7266 86.92L86.7666 87.864L86.0946 87.192L87.0386 86.232L86.0946 85.288ZM88.7422 85.625H92.9844C93.8542 85.625 94.6016 85.7552 95.2266 86.0156C95.8568 86.276 96.3411 86.6615 96.6797 87.1719C97.0182 87.6823 97.1875 88.3099 97.1875 89.0547C97.1875 89.6641 97.0833 90.1875 96.875 90.625C96.6719 91.0573 96.3828 91.4193 96.0078 91.7109C95.638 91.9974 95.2031 92.2266 94.7031 92.3984L93.9609 92.7891H90.2734L90.2578 90.9609H93C93.4115 90.9609 93.7526 90.888 94.0234 90.7422C94.2943 90.5964 94.4974 90.3932 94.6328 90.1328C94.7734 89.8724 94.8438 89.5703 94.8438 89.2266C94.8438 88.862 94.776 88.5469 94.6406 88.2812C94.5052 88.0156 94.2995 87.8125 94.0234 87.6719C93.7474 87.5312 93.401 87.4609 92.9844 87.4609H91.0859V97H88.7422V85.625ZM95.1016 97L92.5078 91.9297L94.9844 91.9141L97.6094 96.8906V97H95.1016ZM96.4566 98.2L97.1286 97.528L97.9446 98.328L98.7286 97.544L99.4806 98.296L98.6966 99.08L99.4966 99.896L98.8246 100.568L98.0086 99.768L97.2246 100.552L96.4726 99.8L97.2566 99.016L96.4566 98.2ZM96.3446 85.288L97.0166 84.6L97.9766 85.56L98.9206 84.6L99.6086 85.288L98.6486 86.232L99.6086 87.192L98.9206 87.864L97.9766 86.92L97.0166 87.864L96.3446 87.192L97.2886 86.232L96.3446 85.288ZM103.617 87.5703L100.523 97H98.0312L102.258 85.625H103.844L103.617 87.5703ZM106.188 97L103.086 87.5703L102.836 85.625H104.438L108.688 97H106.188ZM106.047 92.7656V94.6016H100.039V92.7656H106.047ZM107.207 98.2L107.879 97.528L108.695 98.328L109.479 97.544L110.231 98.296L109.447 99.08L110.247 99.896L109.575 100.568L108.759 99.768L107.975 100.552L107.223 99.8L108.007 99.016L107.207 98.2ZM107.095 85.288L107.767 84.6L108.727 85.56L109.671 84.6L110.359 85.288L109.399 86.232L110.359 87.192L109.671 87.864L108.727 86.92L107.767 87.864L107.095 87.192L108.039 86.232L107.095 85.288ZM114.195 92.0078H111.273L111.258 90.3984H113.711C114.143 90.3984 114.497 90.3438 114.773 90.2344C115.049 90.1198 115.255 89.9557 115.391 89.7422C115.531 89.5234 115.602 89.2578 115.602 88.9453C115.602 88.5911 115.534 88.3047 115.398 88.0859C115.268 87.8672 115.062 87.7083 114.781 87.6094C114.505 87.5104 114.148 87.4609 113.711 87.4609H112.086V97H109.742V85.625H113.711C114.372 85.625 114.964 85.6875 115.484 85.8125C116.01 85.9375 116.456 86.1276 116.82 86.3828C117.185 86.638 117.464 86.9609 117.656 87.3516C117.849 87.737 117.945 88.1953 117.945 88.7266C117.945 89.1953 117.839 89.6276 117.625 90.0234C117.417 90.4193 117.086 90.7422 116.633 90.9922C116.185 91.2422 115.599 91.3802 114.875 91.4062L114.195 92.0078ZM114.094 97H110.633L111.547 95.1719H114.094C114.505 95.1719 114.841 95.1068 115.102 94.9766C115.362 94.8411 115.555 94.6589 115.68 94.4297C115.805 94.2005 115.867 93.9375 115.867 93.6406C115.867 93.3073 115.81 93.0182 115.695 92.7734C115.586 92.5286 115.409 92.3411 115.164 92.2109C114.919 92.0755 114.596 92.0078 114.195 92.0078H111.938L111.953 90.3984H114.766L115.305 91.0312C115.997 91.0208 116.555 91.1432 116.977 91.3984C117.404 91.6484 117.714 91.974 117.906 92.375C118.104 92.776 118.203 93.2057 118.203 93.6641C118.203 94.3932 118.044 95.0078 117.727 95.5078C117.409 96.0026 116.943 96.375 116.328 96.625C115.719 96.875 114.974 97 114.094 97ZM117.425 98.2L118.097 97.528L118.913 98.328L119.697 97.544L120.449 98.296L119.665 99.08L120.465 99.896L119.793 100.568L118.977 99.768L118.193 100.552L117.441 99.8L118.225 99.016L117.425 98.2ZM117.313 85.288L117.985 84.6L118.945 85.56L119.889 84.6L120.577 85.288L119.617 86.232L120.577 87.192L119.889 87.864L118.945 86.92L117.985 87.864L117.313 87.192L118.257 86.232L117.313 85.288ZM126.961 97H120.385V85.576H126.961V87.56H122.801V90.072H126.673V92.056H122.801V95H126.961V97ZM127.137 82.216C126.988 82.3653 126.791 82.5467 126.545 82.76C126.3 82.9733 126.033 83.1973 125.745 83.432C125.468 83.6667 125.191 83.8907 124.913 84.104C124.647 84.3067 124.412 84.4773 124.209 84.616H122.625V84.408C122.796 84.2053 122.993 83.9707 123.217 83.704C123.452 83.4267 123.681 83.144 123.905 82.856C124.129 82.5573 124.316 82.2907 124.465 82.056H127.137V82.216ZM138.172 85.625V97H135.828L131.258 89.375V97H128.914V85.625H131.258L135.836 93.2578V85.625H138.172ZM137.675 98.2L138.347 97.528L139.163 98.328L139.947 97.544L140.699 98.296L139.915 99.08L140.715 99.896L140.043 100.568L139.227 99.768L138.443 100.552L137.691 99.8L138.475 99.016L137.675 98.2ZM137.563 85.288L138.235 84.6L139.195 85.56L140.139 84.6L140.827 85.288L139.867 86.232L140.827 87.192L140.139 87.864L139.195 86.92L138.235 87.864L137.563 87.192L138.507 86.232L137.563 85.288ZM146.133 94.0234C146.133 93.8203 146.102 93.638 146.039 93.4766C145.982 93.3099 145.872 93.1589 145.711 93.0234C145.549 92.8828 145.323 92.7448 145.031 92.6094C144.74 92.474 144.362 92.3333 143.898 92.1875C143.383 92.0208 142.893 91.8333 142.43 91.625C141.971 91.4167 141.565 91.1745 141.211 90.8984C140.862 90.6172 140.586 90.2917 140.383 89.9219C140.185 89.5521 140.086 89.1224 140.086 88.6328C140.086 88.1589 140.19 87.7292 140.398 87.3438C140.607 86.9531 140.898 86.6198 141.273 86.3438C141.648 86.0625 142.091 85.8464 142.602 85.6953C143.117 85.5443 143.682 85.4688 144.297 85.4688C145.135 85.4688 145.867 85.6198 146.492 85.9219C147.117 86.224 147.602 86.638 147.945 87.1641C148.294 87.6901 148.469 88.2917 148.469 88.9688H146.141C146.141 88.6354 146.07 88.3438 145.93 88.0938C145.794 87.8385 145.586 87.638 145.305 87.4922C145.029 87.3464 144.68 87.2734 144.258 87.2734C143.852 87.2734 143.513 87.3359 143.242 87.4609C142.971 87.5807 142.768 87.7448 142.633 87.9531C142.497 88.1562 142.43 88.3854 142.43 88.6406C142.43 88.8333 142.477 89.0078 142.57 89.1641C142.669 89.3203 142.815 89.4661 143.008 89.6016C143.201 89.737 143.438 89.8646 143.719 89.9844C144 90.1042 144.326 90.2214 144.695 90.3359C145.315 90.5234 145.859 90.7344 146.328 90.9688C146.802 91.2031 147.198 91.4661 147.516 91.7578C147.833 92.0495 148.073 92.3802 148.234 92.75C148.396 93.1198 148.477 93.5391 148.477 94.0078C148.477 94.5026 148.38 94.9453 148.188 95.3359C147.995 95.7266 147.716 96.0573 147.352 96.3281C146.987 96.599 146.552 96.8047 146.047 96.9453C145.542 97.0859 144.977 97.1562 144.352 97.1562C143.789 97.1562 143.234 97.0833 142.688 96.9375C142.141 96.7865 141.643 96.5599 141.195 96.2578C140.753 95.9557 140.398 95.5703 140.133 95.1016C139.867 94.6328 139.734 94.0781 139.734 93.4375H142.086C142.086 93.7917 142.141 94.0911 142.25 94.3359C142.359 94.5807 142.513 94.7786 142.711 94.9297C142.914 95.0807 143.154 95.1901 143.43 95.2578C143.711 95.3255 144.018 95.3594 144.352 95.3594C144.758 95.3594 145.091 95.3021 145.352 95.1875C145.617 95.0729 145.812 94.9141 145.938 94.7109C146.068 94.5078 146.133 94.2786 146.133 94.0234ZM147.535 98.2L148.207 97.528L149.023 98.328L149.807 97.544L150.559 98.296L149.775 99.08L150.575 99.896L149.903 100.568L149.087 99.768L148.303 100.552L147.551 99.8L148.335 99.016L147.535 98.2ZM147.423 85.288L148.095 84.6L149.055 85.56L149.999 84.6L150.687 85.288L149.727 86.232L150.687 87.192L149.999 87.864L149.055 86.92L148.095 87.864L147.423 87.192L148.367 86.232L147.423 85.288ZM156.453 85.625L156.195 93.5234H154.32L154.055 85.625H156.453ZM153.992 95.9688C153.992 95.6354 154.107 95.3594 154.336 95.1406C154.57 94.9167 154.878 94.8047 155.258 94.8047C155.643 94.8047 155.951 94.9167 156.18 95.1406C156.409 95.3594 156.523 95.6354 156.523 95.9688C156.523 96.2917 156.409 96.5651 156.18 96.7891C155.951 97.013 155.643 97.125 155.258 97.125C154.878 97.125 154.57 97.013 154.336 96.7891C154.107 96.5651 153.992 96.2917 153.992 95.9688ZM160.781 85.625L160.523 93.5234H158.648L158.383 85.625H160.781ZM158.32 95.9688C158.32 95.6354 158.435 95.3594 158.664 95.1406C158.898 94.9167 159.206 94.8047 159.586 94.8047C159.971 94.8047 160.279 94.9167 160.508 95.1406C160.737 95.3594 160.852 95.6354 160.852 95.9688C160.852 96.2917 160.737 96.5651 160.508 96.7891C160.279 97.013 159.971 97.125 159.586 97.125C159.206 97.125 158.898 97.013 158.664 96.7891C158.435 96.5651 158.32 96.2917 158.32 95.9688ZM165.109 85.625L164.852 93.5234H162.977L162.711 85.625H165.109ZM162.648 95.9688C162.648 95.6354 162.763 95.3594 162.992 95.1406C163.227 94.9167 163.534 94.8047 163.914 94.8047C164.299 94.8047 164.607 94.9167 164.836 95.1406C165.065 95.3594 165.18 95.6354 165.18 95.9688C165.18 96.2917 165.065 96.5651 164.836 96.7891C164.607 97.013 164.299 97.125 163.914 97.125C163.534 97.125 163.227 97.013 162.992 96.7891C162.763 96.5651 162.648 96.2917 162.648 95.9688ZM169.438 85.625L169.18 93.5234H167.305L167.039 85.625H169.438ZM166.977 95.9688C166.977 95.6354 167.091 95.3594 167.32 95.1406C167.555 94.9167 167.862 94.8047 168.242 94.8047C168.628 94.8047 168.935 94.9167 169.164 95.1406C169.393 95.3594 169.508 95.6354 169.508 95.9688C169.508 96.2917 169.393 96.5651 169.164 96.7891C168.935 97.013 168.628 97.125 168.242 97.125C167.862 97.125 167.555 97.013 167.32 96.7891C167.091 96.5651 166.977 96.2917 166.977 95.9688ZM80.5703 106.57L77.4766 116H74.9844L79.2109 104.625H80.7969L80.5703 106.57ZM83.1406 116L80.0391 106.57L79.7891 104.625H81.3906L85.6406 116H83.1406ZM83 111.766V113.602H76.9922V111.766H83ZM84.1597 117.2L84.8317 116.528L85.6477 117.328L86.4317 116.544L87.1837 117.296L86.3997 118.08L87.1997 118.896L86.5277 119.568L85.7117 118.768L84.9277 119.552L84.1757 118.8L84.9597 118.016L84.1597 117.2ZM84.0477 104.288L84.7197 103.6L85.6797 104.56L86.6237 103.6L87.3117 104.288L86.3517 105.232L87.3117 106.192L86.6237 106.864L85.6797 105.92L84.7197 106.864L84.0477 106.192L84.9917 105.232L84.0477 104.288ZM93.2891 112.227H95.625C95.5781 112.992 95.3672 113.672 94.9922 114.266C94.6224 114.859 94.1042 115.323 93.4375 115.656C92.776 115.99 91.9792 116.156 91.0469 116.156C90.3177 116.156 89.6641 116.031 89.0859 115.781C88.5078 115.526 88.013 115.161 87.6016 114.688C87.1953 114.214 86.8854 113.641 86.6719 112.969C86.4583 112.297 86.3516 111.544 86.3516 110.711V109.922C86.3516 109.089 86.4609 108.336 86.6797 107.664C86.9036 106.987 87.2214 106.411 87.6328 105.938C88.0495 105.464 88.5469 105.099 89.125 104.844C89.7031 104.589 90.349 104.461 91.0625 104.461C92.0104 104.461 92.8099 104.633 93.4609 104.977C94.1172 105.32 94.625 105.794 94.9844 106.398C95.349 107.003 95.5677 107.69 95.6406 108.461H93.2969C93.2708 108.003 93.1797 107.615 93.0234 107.297C92.8672 106.974 92.6302 106.732 92.3125 106.57C92 106.404 91.5833 106.32 91.0625 106.32C90.6719 106.32 90.3307 106.393 90.0391 106.539C89.7474 106.685 89.5026 106.906 89.3047 107.203C89.1068 107.5 88.9583 107.875 88.8594 108.328C88.7656 108.776 88.7188 109.302 88.7188 109.906V110.711C88.7188 111.299 88.763 111.818 88.8516 112.266C88.9401 112.708 89.0755 113.083 89.2578 113.391C89.4453 113.693 89.6849 113.922 89.9766 114.078C90.2734 114.229 90.6302 114.305 91.0469 114.305C91.5365 114.305 91.9401 114.227 92.2578 114.07C92.5755 113.914 92.8177 113.682 92.9844 113.375C93.1562 113.068 93.2578 112.685 93.2891 112.227ZM94.6284 117.2L95.3004 116.528L96.1164 117.328L96.9004 116.544L97.6524 117.296L96.8684 118.08L97.6684 118.896L96.9964 119.568L96.1804 118.768L95.3964 119.552L94.6444 118.8L95.4284 118.016L94.6284 117.2ZM94.5164 104.288L95.1884 103.6L96.1484 104.56L97.0924 103.6L97.7804 104.288L96.8204 105.232L97.7804 106.192L97.0924 106.864L96.1484 105.92L95.1884 106.864L94.5164 106.192L95.4604 105.232L94.5164 104.288ZM101.789 106.57L98.6953 116H96.2031L100.43 104.625H102.016L101.789 106.57ZM104.359 116L101.258 106.57L101.008 104.625H102.609L106.859 116H104.359ZM104.219 111.766V113.602H98.2109V111.766H104.219ZM105.378 117.2L106.05 116.528L106.866 117.328L107.65 116.544L108.402 117.296L107.618 118.08L108.418 118.896L107.746 119.568L106.93 118.768L106.146 119.552L105.394 118.8L106.178 118.016L105.378 117.2ZM105.266 104.288L105.938 103.6L106.898 104.56L107.842 103.6L108.53 104.288L107.57 105.232L108.53 106.192L107.842 106.864L106.898 105.92L105.938 106.864L105.266 106.192L106.21 105.232L105.266 104.288ZM112.367 111.008H109.445L109.43 109.398H111.883C112.315 109.398 112.669 109.344 112.945 109.234C113.221 109.12 113.427 108.956 113.562 108.742C113.703 108.523 113.773 108.258 113.773 107.945C113.773 107.591 113.706 107.305 113.57 107.086C113.44 106.867 113.234 106.708 112.953 106.609C112.677 106.51 112.32 106.461 111.883 106.461H110.258V116H107.914V104.625H111.883C112.544 104.625 113.135 104.688 113.656 104.812C114.182 104.938 114.628 105.128 114.992 105.383C115.357 105.638 115.635 105.961 115.828 106.352C116.021 106.737 116.117 107.195 116.117 107.727C116.117 108.195 116.01 108.628 115.797 109.023C115.589 109.419 115.258 109.742 114.805 109.992C114.357 110.242 113.771 110.38 113.047 110.406L112.367 111.008ZM112.266 116H108.805L109.719 114.172H112.266C112.677 114.172 113.013 114.107 113.273 113.977C113.534 113.841 113.727 113.659 113.852 113.43C113.977 113.201 114.039 112.938 114.039 112.641C114.039 112.307 113.982 112.018 113.867 111.773C113.758 111.529 113.581 111.341 113.336 111.211C113.091 111.076 112.768 111.008 112.367 111.008H110.109L110.125 109.398H112.938L113.477 110.031C114.169 110.021 114.727 110.143 115.148 110.398C115.576 110.648 115.885 110.974 116.078 111.375C116.276 111.776 116.375 112.206 116.375 112.664C116.375 113.393 116.216 114.008 115.898 114.508C115.581 115.003 115.115 115.375 114.5 115.625C113.891 115.875 113.146 116 112.266 116ZM115.597 117.2L116.269 116.528L117.085 117.328L117.869 116.544L118.621 117.296L117.837 118.08L118.637 118.896L117.965 119.568L117.149 118.768L116.365 119.552L115.613 118.8L116.397 118.016L115.597 117.2ZM115.485 104.288L116.157 103.6L117.117 104.56L118.061 103.6L118.749 104.288L117.789 105.232L118.749 106.192L118.061 106.864L117.117 105.92L116.157 106.864L115.485 106.192L116.429 105.232L115.485 104.288ZM127.477 110.047V110.586C127.477 111.451 127.359 112.227 127.125 112.914C126.891 113.602 126.56 114.188 126.133 114.672C125.706 115.151 125.195 115.518 124.602 115.773C124.013 116.029 123.359 116.156 122.641 116.156C121.927 116.156 121.273 116.029 120.68 115.773C120.091 115.518 119.581 115.151 119.148 114.672C118.716 114.188 118.38 113.602 118.141 112.914C117.906 112.227 117.789 111.451 117.789 110.586V110.047C117.789 109.177 117.906 108.401 118.141 107.719C118.375 107.031 118.706 106.445 119.133 105.961C119.565 105.477 120.076 105.107 120.664 104.852C121.258 104.596 121.911 104.469 122.625 104.469C123.344 104.469 123.997 104.596 124.586 104.852C125.18 105.107 125.69 105.477 126.117 105.961C126.549 106.445 126.883 107.031 127.117 107.719C127.357 108.401 127.477 109.177 127.477 110.047ZM125.109 110.586V110.031C125.109 109.427 125.055 108.896 124.945 108.438C124.836 107.979 124.674 107.594 124.461 107.281C124.247 106.969 123.987 106.734 123.68 106.578C123.372 106.417 123.021 106.336 122.625 106.336C122.229 106.336 121.878 106.417 121.57 106.578C121.268 106.734 121.01 106.969 120.797 107.281C120.589 107.594 120.43 107.979 120.32 108.438C120.211 108.896 120.156 109.427 120.156 110.031V110.586C120.156 111.185 120.211 111.716 120.32 112.18C120.43 112.638 120.591 113.026 120.805 113.344C121.018 113.656 121.279 113.893 121.586 114.055C121.893 114.216 122.245 114.297 122.641 114.297C123.036 114.297 123.388 114.216 123.695 114.055C124.003 113.893 124.26 113.656 124.469 113.344C124.677 113.026 124.836 112.638 124.945 112.18C125.055 111.716 125.109 111.185 125.109 110.586ZM126.628 117.2L127.3 116.528L128.116 117.328L128.9 116.544L129.652 117.296L128.868 118.08L129.668 118.896L128.996 119.568L128.18 118.768L127.396 119.552L126.644 118.8L127.428 118.016L126.628 117.2ZM126.516 104.288L127.188 103.6L128.148 104.56L129.092 103.6L129.78 104.288L128.82 105.232L129.78 106.192L129.092 106.864L128.148 105.92L127.188 106.864L126.516 106.192L127.46 105.232L126.516 104.288ZM135.445 104.625H137.781V112.141C137.781 113.016 137.594 113.753 137.219 114.352C136.849 114.951 136.336 115.401 135.68 115.703C135.029 116.005 134.279 116.156 133.43 116.156C132.581 116.156 131.826 116.005 131.164 115.703C130.508 115.401 129.992 114.951 129.617 114.352C129.247 113.753 129.062 113.016 129.062 112.141V104.625H131.406V112.141C131.406 112.651 131.487 113.068 131.648 113.391C131.81 113.714 132.042 113.951 132.344 114.102C132.651 114.253 133.013 114.328 133.43 114.328C133.857 114.328 134.219 114.253 134.516 114.102C134.818 113.951 135.047 113.714 135.203 113.391C135.365 113.068 135.445 112.651 135.445 112.141V104.625ZM137.175 117.2L137.847 116.528L138.663 117.328L139.447 116.544L140.199 117.296L139.415 118.08L140.215 118.896L139.543 119.568L138.727 118.768L137.943 119.552L137.191 118.8L137.975 118.016L137.175 117.2ZM137.063 104.288L137.735 103.6L138.695 104.56L139.639 103.6L140.327 104.288L139.367 105.232L140.327 106.192L139.639 106.864L138.695 105.92L137.735 106.864L137.063 106.192L138.007 105.232L137.063 104.288ZM147.188 116H144.711L144.727 114.172H147.188C147.802 114.172 148.32 114.034 148.742 113.758C149.164 113.477 149.482 113.068 149.695 112.531C149.914 111.995 150.023 111.346 150.023 110.586V110.031C150.023 109.448 149.961 108.935 149.836 108.492C149.716 108.049 149.536 107.677 149.297 107.375C149.057 107.073 148.763 106.846 148.414 106.695C148.065 106.539 147.664 106.461 147.211 106.461H144.664V104.625H147.211C147.971 104.625 148.667 104.755 149.297 105.016C149.932 105.271 150.482 105.638 150.945 106.117C151.409 106.596 151.766 107.169 152.016 107.836C152.271 108.497 152.398 109.234 152.398 110.047V110.586C152.398 111.393 152.271 112.13 152.016 112.797C151.766 113.464 151.409 114.036 150.945 114.516C150.487 114.99 149.938 115.357 149.297 115.617C148.661 115.872 147.958 116 147.188 116ZM146.039 104.625V116H143.695V104.625H146.039ZM151.566 117.2L152.238 116.528L153.054 117.328L153.838 116.544L154.59 117.296L153.806 118.08L154.606 118.896L153.934 119.568L153.118 118.768L152.334 119.552L151.582 118.8L152.366 118.016L151.566 117.2ZM151.454 104.288L152.126 103.6L153.086 104.56L154.03 103.6L154.718 104.288L153.758 105.232L154.718 106.192L154.03 106.864L153.086 105.92L152.126 106.864L151.454 106.192L152.398 105.232L151.454 104.288ZM161.734 114.172V116H155.68V114.172H161.734ZM156.445 104.625V116H154.102V104.625H156.445ZM160.945 109.258V111.039H155.68V109.258H160.945ZM161.727 104.625V106.461H155.68V104.625H161.727ZM160.566 117.2L161.238 116.528L162.054 117.328L162.838 116.544L163.59 117.296L162.806 118.08L163.606 118.896L162.934 119.568L162.118 118.768L161.334 119.552L160.582 118.8L161.366 118.016L160.566 117.2ZM160.454 104.288L161.126 103.6L162.086 104.56L163.03 103.6L163.718 104.288L162.758 105.232L163.718 106.192L163.03 106.864L162.086 105.92L161.126 106.864L160.454 106.192L161.398 105.232L160.454 104.288ZM52.3516 131.227H54.6875C54.6406 131.992 54.4297 132.672 54.0547 133.266C53.6849 133.859 53.1667 134.323 52.5 134.656C51.8385 134.99 51.0417 135.156 50.1094 135.156C49.3802 135.156 48.7266 135.031 48.1484 134.781C47.5703 134.526 47.0755 134.161 46.6641 133.688C46.2578 133.214 45.9479 132.641 45.7344 131.969C45.5208 131.297 45.4141 130.544 45.4141 129.711V128.922C45.4141 128.089 45.5234 127.336 45.7422 126.664C45.9661 125.987 46.2839 125.411 46.6953 124.938C47.112 124.464 47.6094 124.099 48.1875 123.844C48.7656 123.589 49.4115 123.461 50.125 123.461C51.0729 123.461 51.8724 123.633 52.5234 123.977C53.1797 124.32 53.6875 124.794 54.0469 125.398C54.4115 126.003 54.6302 126.69 54.7031 127.461H52.3594C52.3333 127.003 52.2422 126.615 52.0859 126.297C51.9297 125.974 51.6927 125.732 51.375 125.57C51.0625 125.404 50.6458 125.32 50.125 125.32C49.7344 125.32 49.3932 125.393 49.1016 125.539C48.8099 125.685 48.5651 125.906 48.3672 126.203C48.1693 126.5 48.0208 126.875 47.9219 127.328C47.8281 127.776 47.7812 128.302 47.7812 128.906V129.711C47.7812 130.299 47.8255 130.818 47.9141 131.266C48.0026 131.708 48.138 132.083 48.3203 132.391C48.5078 132.693 48.7474 132.922 49.0391 133.078C49.3359 133.229 49.6927 133.305 50.1094 133.305C50.599 133.305 51.0026 133.227 51.3203 133.07C51.638 132.914 51.8802 132.682 52.0469 132.375C52.2188 132.068 52.3203 131.685 52.3516 131.227ZM53.6909 136.2L54.3629 135.528L55.1789 136.328L55.9629 135.544L56.7149 136.296L55.9309 137.08L56.7309 137.896L56.0589 138.568L55.2429 137.768L54.4589 138.552L53.7069 137.8L54.4909 137.016L53.6909 136.2ZM53.5789 123.288L54.2509 122.6L55.2109 123.56L56.1549 122.6L56.8429 123.288L55.8829 124.232L56.8429 125.192L56.1549 125.864L55.2109 124.92L54.2509 125.864L53.5789 125.192L54.5229 124.232L53.5789 123.288ZM65.5703 129.047V129.586C65.5703 130.451 65.4531 131.227 65.2188 131.914C64.9844 132.602 64.6536 133.188 64.2266 133.672C63.7995 134.151 63.2891 134.518 62.6953 134.773C62.1068 135.029 61.4531 135.156 60.7344 135.156C60.0208 135.156 59.3672 135.029 58.7734 134.773C58.1849 134.518 57.6745 134.151 57.2422 133.672C56.8099 133.188 56.474 132.602 56.2344 131.914C56 131.227 55.8828 130.451 55.8828 129.586V129.047C55.8828 128.177 56 127.401 56.2344 126.719C56.4688 126.031 56.7995 125.445 57.2266 124.961C57.6589 124.477 58.1693 124.107 58.7578 123.852C59.3516 123.596 60.0052 123.469 60.7188 123.469C61.4375 123.469 62.0911 123.596 62.6797 123.852C63.2734 124.107 63.7839 124.477 64.2109 124.961C64.6432 125.445 64.9766 126.031 65.2109 126.719C65.4505 127.401 65.5703 128.177 65.5703 129.047ZM63.2031 129.586V129.031C63.2031 128.427 63.1484 127.896 63.0391 127.438C62.9297 126.979 62.7682 126.594 62.5547 126.281C62.3411 125.969 62.0807 125.734 61.7734 125.578C61.4661 125.417 61.1146 125.336 60.7188 125.336C60.3229 125.336 59.9714 125.417 59.6641 125.578C59.362 125.734 59.1042 125.969 58.8906 126.281C58.6823 126.594 58.5234 126.979 58.4141 127.438C58.3047 127.896 58.25 128.427 58.25 129.031V129.586C58.25 130.185 58.3047 130.716 58.4141 131.18C58.5234 131.638 58.6849 132.026 58.8984 132.344C59.112 132.656 59.3724 132.893 59.6797 133.055C59.987 133.216 60.3385 133.297 60.7344 133.297C61.1302 133.297 61.4818 133.216 61.7891 133.055C62.0964 132.893 62.3542 132.656 62.5625 132.344C62.7708 132.026 62.9297 131.638 63.0391 131.18C63.1484 130.716 63.2031 130.185 63.2031 129.586ZM64.7222 136.2L65.3942 135.528L66.2102 136.328L66.9942 135.544L67.7462 136.296L66.9622 137.08L67.7622 137.896L67.0902 138.568L66.2742 137.768L65.4902 138.552L64.7382 137.8L65.5222 137.016L64.7222 136.2ZM64.6102 123.288L65.2822 122.6L66.2422 123.56L67.1862 122.6L67.8742 123.288L66.9142 124.232L67.8742 125.192L67.1862 125.864L66.2422 124.92L65.2822 125.864L64.6102 125.192L65.5542 124.232L64.6102 123.288ZM68.3281 123.625H70.3125L73.2344 131.977L76.1562 123.625H78.1406L74.0312 135H72.4375L68.3281 123.625ZM67.2578 123.625H69.2344L69.5938 131.766V135H67.2578V123.625ZM77.2344 123.625H79.2188V135H76.875V131.766L77.2344 123.625ZM78.7378 136.2L79.4098 135.528L80.2258 136.328L81.0098 135.544L81.7618 136.296L80.9778 137.08L81.7778 137.896L81.1058 138.568L80.2898 137.768L79.5058 138.552L78.7538 137.8L79.5378 137.016L78.7378 136.2ZM78.6258 123.288L79.2978 122.6L80.2578 123.56L81.2018 122.6L81.8898 123.288L80.9298 124.232L81.8898 125.192L81.2018 125.864L80.2578 124.92L79.2978 125.864L78.6258 125.192L79.5698 124.232L78.6258 123.288ZM85.7031 130.945H82.8047V129.117H85.7031C86.151 129.117 86.5156 129.044 86.7969 128.898C87.0781 128.747 87.2839 128.539 87.4141 128.273C87.5443 128.008 87.6094 127.708 87.6094 127.375C87.6094 127.036 87.5443 126.721 87.4141 126.43C87.2839 126.138 87.0781 125.904 86.7969 125.727C86.5156 125.549 86.151 125.461 85.7031 125.461H83.6172V135H81.2734V123.625H85.7031C86.5938 123.625 87.3568 123.786 87.9922 124.109C88.6328 124.427 89.1224 124.867 89.4609 125.43C89.7995 125.992 89.9688 126.635 89.9688 127.359C89.9688 128.094 89.7995 128.729 89.4609 129.266C89.1224 129.802 88.6328 130.216 87.9922 130.508C87.3568 130.799 86.5938 130.945 85.7031 130.945ZM89.0503 136.2L89.7223 135.528L90.5383 136.328L91.3223 135.544L92.0743 136.296L91.2903 137.08L92.0903 137.896L91.4183 138.568L90.6023 137.768L89.8183 138.552L89.0663 137.8L89.8503 137.016L89.0503 136.2ZM88.9383 123.288L89.6103 122.6L90.5703 123.56L91.5143 122.6L92.2023 123.288L91.2423 124.232L92.2023 125.192L91.5143 125.864L90.5703 124.92L89.6103 125.864L88.9383 125.192L89.8823 124.232L88.9383 123.288ZM98.8984 133.172V135H93.1719V133.172H98.8984ZM93.9297 123.625V135H91.5859V123.625H93.9297ZM97.7066 136.2L98.3786 135.528L99.1946 136.328L99.9786 135.544L100.731 136.296L99.9466 137.08L100.747 137.896L100.075 138.568L99.2586 137.768L98.4746 138.552L97.7226 137.8L98.5066 137.016L97.7066 136.2ZM97.5946 123.288L98.2666 122.6L99.2266 123.56L100.171 122.6L100.859 123.288L99.8986 124.232L100.859 125.192L100.171 125.864L99.2266 124.92L98.2666 125.864L97.5946 125.192L98.5386 124.232L97.5946 123.288ZM107.875 133.172V135H101.82V133.172H107.875ZM102.586 123.625V135H100.242V123.625H102.586ZM107.086 128.258V130.039H101.82V128.258H107.086ZM107.867 123.625V125.461H101.82V123.625H107.867ZM106.707 136.2L107.379 135.528L108.195 136.328L108.979 135.544L109.731 136.296L108.947 137.08L109.747 137.896L109.075 138.568L108.259 137.768L107.475 138.552L106.723 137.8L107.507 137.016L106.707 136.2ZM106.595 123.288L107.267 122.6L108.227 123.56L109.171 122.6L109.859 123.288L108.899 124.232L109.859 125.192L109.171 125.864L108.227 124.92L107.267 125.864L106.595 125.192L107.539 124.232L106.595 123.288ZM114.328 123.625V135H111.992V123.625H114.328ZM117.828 123.625V125.461H108.547V123.625H117.828ZM116.628 136.2L117.3 135.528L118.116 136.328L118.9 135.544L119.652 136.296L118.868 137.08L119.668 137.896L118.996 138.568L118.18 137.768L117.396 138.552L116.644 137.8L117.428 137.016L116.628 136.2ZM116.516 123.288L117.188 122.6L118.148 123.56L119.092 122.6L119.78 123.288L118.82 124.232L119.78 125.192L119.092 125.864L118.148 124.92L117.188 125.864L116.516 125.192L117.46 124.232L116.516 123.288ZM123.789 125.57L120.695 135H118.203L122.43 123.625H124.016L123.789 125.57ZM126.359 135L123.258 125.57L123.008 123.625H124.609L128.859 135H126.359ZM126.219 130.766V132.602H120.211V130.766H126.219ZM127.378 136.2L128.05 135.528L128.866 136.328L129.65 135.544L130.402 136.296L129.618 137.08L130.418 137.896L129.746 138.568L128.93 137.768L128.146 138.552L127.394 137.8L128.178 137.016L127.378 136.2ZM127.266 123.288L127.938 122.6L128.898 123.56L129.842 122.6L130.53 123.288L129.57 124.232L130.53 125.192L129.842 125.864L128.898 124.92L127.938 125.864L127.266 125.192L128.21 124.232L127.266 123.288ZM129.914 123.625H134.156C135.026 123.625 135.773 123.755 136.398 124.016C137.029 124.276 137.513 124.661 137.852 125.172C138.19 125.682 138.359 126.31 138.359 127.055C138.359 127.664 138.255 128.188 138.047 128.625C137.844 129.057 137.555 129.419 137.18 129.711C136.81 129.997 136.375 130.227 135.875 130.398L135.133 130.789H131.445L131.43 128.961H134.172C134.583 128.961 134.924 128.888 135.195 128.742C135.466 128.596 135.669 128.393 135.805 128.133C135.945 127.872 136.016 127.57 136.016 127.227C136.016 126.862 135.948 126.547 135.812 126.281C135.677 126.016 135.471 125.812 135.195 125.672C134.919 125.531 134.573 125.461 134.156 125.461H132.258V135H129.914V123.625ZM136.273 135L133.68 129.93L136.156 129.914L138.781 134.891V135H136.273ZM137.628 136.2L138.3 135.528L139.116 136.328L139.9 135.544L140.652 136.296L139.868 137.08L140.668 137.896L139.996 138.568L139.18 137.768L138.396 138.552L137.644 137.8L138.428 137.016L137.628 136.2ZM137.516 123.288L138.188 122.6L139.148 123.56L140.092 122.6L140.78 123.288L139.82 124.232L140.78 125.192L140.092 125.864L139.148 124.92L138.188 125.864L137.516 125.192L138.46 124.232L137.516 123.288ZM148.773 125.57L145.68 135H143.188L147.414 123.625H149L148.773 125.57ZM151.344 135L148.242 125.57L147.992 123.625H149.594L153.844 135H151.344ZM151.203 130.766V132.602H145.195V130.766H151.203ZM152.363 136.2L153.035 135.528L153.851 136.328L154.635 135.544L155.387 136.296L154.603 137.08L155.403 137.896L154.731 138.568L153.915 137.768L153.131 138.552L152.379 137.8L153.163 137.016L152.363 136.2ZM152.251 123.288L152.923 122.6L153.883 123.56L154.827 122.6L155.515 123.288L154.555 124.232L155.515 125.192L154.827 125.864L153.883 124.92L152.923 125.864L152.251 125.192L153.195 124.232L152.251 123.288ZM161.227 123.625V135H158.883V123.625H161.227ZM165.758 128.484V130.312H160.586V128.484H165.758ZM166.305 123.625V125.461H160.586V123.625H166.305ZM165.128 136.2L165.8 135.528L166.616 136.328L167.4 135.544L168.152 136.296L167.368 137.08L168.168 137.896L167.496 138.568L166.68 137.768L165.896 138.552L165.144 137.8L165.928 137.016L165.128 136.2ZM165.016 123.288L165.688 122.6L166.648 123.56L167.592 122.6L168.28 123.288L167.32 124.232L168.28 125.192L167.592 125.864L166.648 124.92L165.688 125.864L165.016 125.192L165.96 124.232L165.016 123.288ZM172.289 125.57L169.195 135H166.703L170.93 123.625H172.516L172.289 125.57ZM174.859 135L171.758 125.57L171.508 123.625H173.109L177.359 135H174.859ZM174.719 130.766V132.602H168.711V130.766H174.719ZM175.878 136.2L176.55 135.528L177.366 136.328L178.15 135.544L178.902 136.296L178.118 137.08L178.918 137.896L178.246 138.568L177.43 137.768L176.646 138.552L175.894 137.8L176.678 137.016L175.878 136.2ZM175.766 123.288L176.438 122.6L177.398 123.56L178.342 122.6L179.03 123.288L178.07 124.232L179.03 125.192L178.342 125.864L177.398 124.92L176.438 125.864L175.766 125.192L176.71 124.232L175.766 123.288ZM184.336 132.023C184.336 131.82 184.305 131.638 184.242 131.477C184.185 131.31 184.076 131.159 183.914 131.023C183.753 130.883 183.526 130.745 183.234 130.609C182.943 130.474 182.565 130.333 182.102 130.188C181.586 130.021 181.096 129.833 180.633 129.625C180.174 129.417 179.768 129.174 179.414 128.898C179.065 128.617 178.789 128.292 178.586 127.922C178.388 127.552 178.289 127.122 178.289 126.633C178.289 126.159 178.393 125.729 178.602 125.344C178.81 124.953 179.102 124.62 179.477 124.344C179.852 124.062 180.294 123.846 180.805 123.695C181.32 123.544 181.885 123.469 182.5 123.469C183.339 123.469 184.07 123.62 184.695 123.922C185.32 124.224 185.805 124.638 186.148 125.164C186.497 125.69 186.672 126.292 186.672 126.969H184.344C184.344 126.635 184.273 126.344 184.133 126.094C183.997 125.839 183.789 125.638 183.508 125.492C183.232 125.346 182.883 125.273 182.461 125.273C182.055 125.273 181.716 125.336 181.445 125.461C181.174 125.581 180.971 125.745 180.836 125.953C180.701 126.156 180.633 126.385 180.633 126.641C180.633 126.833 180.68 127.008 180.773 127.164C180.872 127.32 181.018 127.466 181.211 127.602C181.404 127.737 181.641 127.865 181.922 127.984C182.203 128.104 182.529 128.221 182.898 128.336C183.518 128.523 184.062 128.734 184.531 128.969C185.005 129.203 185.401 129.466 185.719 129.758C186.036 130.049 186.276 130.38 186.438 130.75C186.599 131.12 186.68 131.539 186.68 132.008C186.68 132.503 186.583 132.945 186.391 133.336C186.198 133.727 185.919 134.057 185.555 134.328C185.19 134.599 184.755 134.805 184.25 134.945C183.745 135.086 183.18 135.156 182.555 135.156C181.992 135.156 181.438 135.083 180.891 134.938C180.344 134.786 179.846 134.56 179.398 134.258C178.956 133.956 178.602 133.57 178.336 133.102C178.07 132.633 177.938 132.078 177.938 131.438H180.289C180.289 131.792 180.344 132.091 180.453 132.336C180.562 132.581 180.716 132.779 180.914 132.93C181.117 133.081 181.357 133.19 181.633 133.258C181.914 133.326 182.221 133.359 182.555 133.359C182.961 133.359 183.294 133.302 183.555 133.188C183.82 133.073 184.016 132.914 184.141 132.711C184.271 132.508 184.336 132.279 184.336 132.023ZM185.738 136.2L186.41 135.528L187.226 136.328L188.01 135.544L188.762 136.296L187.978 137.08L188.778 137.896L188.106 138.568L187.29 137.768L186.506 138.552L185.754 137.8L186.538 137.016L185.738 136.2ZM185.626 123.288L186.298 122.6L187.258 123.56L188.202 122.6L188.89 123.288L187.93 124.232L188.89 125.192L188.202 125.864L187.258 124.92L186.298 125.864L185.626 125.192L186.57 124.232L185.626 123.288ZM195.906 133.172V135H189.852V133.172H195.906ZM190.617 123.625V135H188.273V123.625H190.617ZM195.117 128.258V130.039H189.852V128.258H195.117ZM195.898 123.625V125.461H189.852V123.625H195.898ZM194.738 136.2L195.41 135.528L196.226 136.328L197.01 135.544L197.762 136.296L196.978 137.08L197.778 137.896L197.106 138.568L196.29 137.768L195.506 138.552L194.754 137.8L195.538 137.016L194.738 136.2ZM194.626 123.288L195.298 122.6L196.258 123.56L197.202 122.6L197.89 123.288L196.93 124.232L197.89 125.192L197.202 125.864L196.258 124.92L195.298 125.864L194.626 125.192L195.57 124.232L194.626 123.288Z"
            fill="black" />
        <g filter="url(#filter1_d_75_1258)">
            <path
                d="M135.5 55.5C135.5 64.3366 128.337 71.5 119.5 71.5C110.663 71.5 103.5 64.3366 103.5 55.5C103.5 46.6634 110.663 39.5 119.5 39.5C128.337 39.5 135.5 46.6634 135.5 55.5Z"
                fill="#FFCC4D" stroke="#E2A62D" />
            <path
                d="M119.999 64.5C121.104 64.5 121.999 63.3807 121.999 62C121.999 60.6193 121.104 59.5 119.999 59.5C118.894 59.5 117.999 60.6193 117.999 62C117.999 63.3807 118.894 64.5 119.999 64.5Z"
                fill="#664500" />
            <path
                d="M110.111 57.3831C109.929 57.3831 109.744 57.3331 109.579 57.2291C109.112 56.9351 108.972 56.3181 109.266 55.8501C110.182 54.3971 112.967 51.9121 116.956 52.8881C117.492 53.0191 117.82 53.5611 117.689 54.0971C117.557 54.6331 117.013 54.9591 116.48 54.8301C112.876 53.9481 110.978 56.8861 110.959 56.9161C110.768 57.2181 110.443 57.3831 110.111 57.3831ZM122.084 53.6411C121.794 53.6411 121.508 53.5161 121.31 53.2751C120.96 52.8481 121.022 52.2171 121.45 51.8671C124.626 49.2631 128.212 50.3051 129.665 51.2211C130.132 51.5151 130.272 52.1331 129.977 52.6001C129.684 53.0651 129.069 53.2071 128.601 52.9151C128.463 52.8311 125.549 51.0921 122.717 53.4141C122.531 53.5671 122.307 53.6411 122.084 53.6411Z"
                fill="#664500" />
            <path
                d="M115.346 67.273C115.278 67.273 115.209 67.264 115.141 67.245C114.743 67.132 114.511 66.718 114.624 66.319C115.061 64.779 114.882 63.29 114.134 62.233C113.637 61.531 112.929 61.102 112.191 61.055C111.777 61.03 111.463 60.673 111.489 60.26C111.515 59.847 111.87 59.509 112.284 59.559C113.477 59.633 114.597 60.292 115.357 61.366C116.368 62.795 116.627 64.749 116.066 66.727C115.973 67.058 115.672 67.273 115.346 67.273ZM126.383 64.212C126.241 64.212 126.098 64.172 125.971 64.088C124.804 63.318 124.151 61.971 124.179 60.393C124.208 58.758 124.988 57.24 126.163 56.524C126.516 56.308 126.977 56.42 127.193 56.775C127.409 57.129 127.297 57.589 126.942 57.805C126.207 58.253 125.698 59.304 125.678 60.419C125.658 61.474 126.067 62.355 126.796 62.836C127.142 63.064 127.237 63.529 127.009 63.875C126.865 64.094 126.627 64.212 126.383 64.212Z"
                fill="#E2A62D" />
            <path
                d="M119.179 38.7201C119.136 38.6711 119.069 38.6441 118.99 38.6291C118.99 38.6291 103.066 35.6061 102.377 36.2141C101.689 36.8231 102.74 52.9981 102.74 52.9981C102.745 53.0791 102.763 53.1481 102.807 53.1971C103.411 53.8811 107.565 51.1931 112.086 47.1961C116.608 43.1981 119.783 39.4041 119.179 38.7201Z"
                fill="#DD2E44" />
            <path
                d="M102.349 36.2709C102.334 36.3009 102.321 36.3419 102.311 36.3939C102.47 37.7649 104.006 49.0459 104.963 52.5719C106.399 51.7689 107.858 50.6779 109.572 49.3189C108.116 46.6539 103.158 36.1459 102.349 36.2709Z"
                fill="#EA596E" />
            <path
                d="M131.902 65.2289L121.329 63.9259C120.199 63.8239 118.212 63.8139 118.314 62.0239C118.407 60.4009 120.354 60.6509 121.793 60.8639L132.431 62.6379L131.902 65.2289Z"
                fill="#3B88C3" />
            <path
                d="M132.43 62.639L128.208 61.915C127.714 61.826 127.274 62.562 127.252 63.341C127.227 64.207 127.479 64.645 127.978 64.747L132.122 65.259L132.43 62.639Z"
                fill="#88C9F9" />
            <path
                d="M136.918 62.341L134.296 64.752L129.609 59.655L132.231 57.244C133.592 55.992 135.73 56.082 136.982 57.443L137.117 57.59C138.368 58.952 138.279 61.089 136.918 62.341Z"
                fill="#3B88C3" />
            <path
                d="M134.294 64.7534C135.421 63.7179 135.284 61.7376 133.99 60.3301C132.696 58.9226 130.734 58.621 129.608 59.6564C128.482 60.6919 128.618 62.6722 129.912 64.0797C131.206 65.4872 133.168 65.7888 134.294 64.7534Z"
                fill="#88C9F9" />
            <path
                d="M133.357 63.7338C133.92 63.216 133.747 62.1118 132.971 61.2674C132.194 60.423 131.109 60.1581 130.545 60.6759C129.982 61.1936 130.155 62.2978 130.932 63.1422C131.708 63.9866 132.794 64.2515 133.357 63.7338Z"
                fill="#226699" />
            <path
                d="M104.5 71C105.328 71 106 70.3284 106 69.5C106 68.6716 105.328 68 104.5 68C103.672 68 103 68.6716 103 69.5C103 70.3284 103.672 71 104.5 71Z"
                fill="#55ACEE" />
            <path
                d="M131 40C132.105 40 133 39.1046 133 38C133 36.8954 132.105 36 131 36C129.895 36 129 36.8954 129 38C129 39.1046 129.895 40 131 40Z"
                fill="#55ACEE" />
            <path
                d="M106.864 65.246L104.526 59.63L102.412 65.675L106.864 65.246ZM128 41L124 42L125 38L128 41Z"
                fill="#EA596E" />
            <path d="M133.999 49L138 43.999L135 42L133.999 49Z" fill="#77B255" />
        </g>
        <path
            d="M211.626 42.907C211.514 43.019 211.429 43.154 211.358 43.302L211.35 43.294L200.134 68.56L200.145 68.571C199.937 68.974 200.285 69.794 200.998 70.508C201.711 71.221 202.531 71.569 202.934 71.361L202.944 71.371L228.21 60.154L228.202 60.145C228.349 60.075 228.484 59.99 228.597 59.876C230.159 58.314 227.626 53.249 222.941 48.563C218.254 43.877 213.189 41.345 211.626 42.907Z"
            fill="#DD2E44" />
        <path
            d="M213 47.4189L200.416 67.9249L200.134 68.5599L200.145 68.5709C199.937 68.9739 200.285 69.7939 200.998 70.5079C201.23 70.7399 201.471 70.9159 201.707 71.0649L217 52.4189L213 47.4189Z"
            fill="#EA596E" />
        <path
            d="M223.012 48.485C227.682 53.157 230.275 58.137 228.801 59.609C227.328 61.083 222.348 58.491 217.675 53.821C213.004 49.149 210.412 44.167 211.885 42.694C213.359 41.221 218.339 43.813 223.012 48.485Z"
            fill="#A0041E" />
        <path
            d="M218.59 49.028C218.391 49.189 218.131 49.273 217.856 49.243C216.988 49.149 216.258 48.847 215.747 48.37C215.206 47.865 214.939 47.187 215.012 46.508C215.14 45.316 216.336 44.222 218.375 44.442C219.168 44.527 219.522 44.272 219.534 44.15C219.548 44.029 219.257 43.704 218.464 43.618C217.596 43.524 216.866 43.222 216.354 42.745C215.813 42.24 215.545 41.562 215.619 40.883C215.749 39.691 216.944 38.597 218.981 38.818C219.559 38.88 219.864 38.761 219.993 38.684C220.096 38.621 220.137 38.561 220.141 38.526C220.153 38.405 219.866 38.08 219.071 37.994C218.522 37.934 218.124 37.442 218.185 36.892C218.244 36.343 218.735 35.946 219.286 36.006C221.323 36.225 222.259 37.548 222.13 38.741C222 39.935 220.805 41.027 218.766 40.808C218.188 40.745 217.886 40.865 217.756 40.942C217.653 41.004 217.611 41.065 217.607 41.099C217.594 41.221 217.883 41.545 218.678 41.631C220.715 41.851 221.651 43.173 221.522 44.366C221.393 45.558 220.198 46.652 218.16 46.431C217.582 46.369 217.278 46.489 217.148 46.565C217.044 46.629 217.004 46.689 217 46.723C216.987 46.844 217.276 47.169 218.07 47.255C218.618 47.315 219.017 47.808 218.956 48.357C218.928 48.631 218.789 48.868 218.59 49.028Z"
            fill="#AA8DD8" />
        <path
            d="M230.661 58.2761C232.634 57.7191 233.995 58.5991 234.319 59.7541C234.643 60.9081 233.941 62.3691 231.969 62.9241C231.199 63.1401 230.968 63.5081 230.999 63.6251C231.033 63.7431 231.424 63.9371 232.192 63.7201C234.164 63.1651 235.525 64.0451 235.849 65.1991C236.175 66.3541 235.471 67.8131 233.498 68.3691C232.729 68.5851 232.497 68.9541 232.531 69.0711C232.564 69.1881 232.954 69.3821 233.723 69.1661C234.253 69.0171 234.807 69.3261 234.956 69.8571C235.104 70.3891 234.795 70.9411 234.263 71.0911C232.292 71.6461 230.93 70.7681 230.604 69.6121C230.28 68.4581 230.983 66.9991 232.957 66.4431C233.727 66.2261 233.958 65.8591 233.924 65.7411C233.892 65.6241 233.502 65.4291 232.734 65.6451C230.76 66.2011 229.4 65.3231 229.075 64.1661C228.75 63.0121 229.453 61.5531 231.426 60.9961C232.194 60.7811 232.425 60.4111 232.393 60.2951C232.359 60.1771 231.97 59.9831 231.201 60.1991C230.669 60.3491 230.118 60.0391 229.968 59.5081C229.819 58.9781 230.129 58.4261 230.661 58.2761Z"
            fill="#77B255" />
        <path
            d="M223.001 55.5791C222.707 55.5791 222.417 55.4501 222.219 55.2041C221.874 54.7721 221.945 54.1431 222.375 53.7981C222.593 53.6231 227.793 49.5391 235.142 50.5901C235.689 50.6681 236.069 51.1741 235.991 51.7211C235.913 52.2671 235.411 52.6511 234.859 52.5691C228.366 51.6471 223.672 55.3231 223.626 55.3601C223.44 55.5081 223.22 55.5791 223.001 55.5791Z"
            fill="#AA8DD8" />
        <path
            d="M205.754 51.419C205.659 51.419 205.562 51.405 205.466 51.377C204.937 51.218 204.637 50.661 204.796 50.132C205.929 46.359 206.956 40.338 205.694 38.768C205.553 38.59 205.34 38.415 204.852 38.452C203.914 38.524 204.003 40.503 204.004 40.523C204.046 41.074 203.632 41.554 203.082 41.595C202.523 41.629 202.051 41.223 202.01 40.672C201.907 39.293 202.336 36.637 204.702 36.458C205.758 36.378 206.635 36.745 207.254 37.515C209.625 40.466 207.218 49.021 206.712 50.707C206.582 51.14 206.184 51.419 205.754 51.419Z"
            fill="#77B255" />
        <path
            d="M225.5 46.4189C226.328 46.4189 227 45.7474 227 44.9189C227 44.0905 226.328 43.4189 225.5 43.4189C224.672 43.4189 224 44.0905 224 44.9189C224 45.7474 224.672 46.4189 225.5 46.4189Z"
            fill="#5C913B" />
        <path
            d="M202 55.4189C203.105 55.4189 204 54.5235 204 53.4189C204 52.3144 203.105 51.4189 202 51.4189C200.895 51.4189 200 52.3144 200 53.4189C200 54.5235 200.895 55.4189 202 55.4189Z"
            fill="#9266CC" />
        <path
            d="M232.5 56.4189C233.328 56.4189 234 55.7474 234 54.9189C234 54.0905 233.328 53.4189 232.5 53.4189C231.672 53.4189 231 54.0905 231 54.9189C231 55.7474 231.672 56.4189 232.5 56.4189Z"
            fill="#5C913B" />
        <path
            d="M223.5 68.4189C224.328 68.4189 225 67.7474 225 66.9189C225 66.0905 224.328 65.4189 223.5 65.4189C222.672 65.4189 222 66.0905 222 66.9189C222 67.7474 222.672 68.4189 223.5 68.4189Z"
            fill="#5C913B" />
        <path
            d="M228 41.4189C229.105 41.4189 230 40.5235 230 39.4189C230 38.3144 229.105 37.4189 228 37.4189C226.895 37.4189 226 38.3144 226 39.4189C226 40.5235 226.895 41.4189 228 41.4189Z"
            fill="#FFCC4D" />
        <path
            d="M232.5 45.4189C233.328 45.4189 234 44.7474 234 43.9189C234 43.0905 233.328 42.4189 232.5 42.4189C231.672 42.4189 231 43.0905 231 43.9189C231 44.7474 231.672 45.4189 232.5 45.4189Z"
            fill="#FFCC4D" />
        <path
            d="M229.5 49.4189C230.328 49.4189 231 48.7474 231 47.9189C231 47.0905 230.328 46.4189 229.5 46.4189C228.672 46.4189 228 47.0905 228 47.9189C228 48.7474 228.672 49.4189 229.5 49.4189Z"
            fill="#FFCC4D" />
        <path
            d="M207.5 60.4189C208.328 60.4189 209 59.7474 209 58.9189C209 58.0905 208.328 57.4189 207.5 57.4189C206.672 57.4189 206 58.0905 206 58.9189C206 59.7474 206.672 60.4189 207.5 60.4189Z"
            fill="#FFCC4D" />
        <path
            d="M30.0005 44.7394C26.4095 44.7394 23.7305 43.045 22.0115 39.6963C20.3855 43.0059 17.9935 44.7394 15.0005 44.7394C14.4485 44.7394 14.0005 44.2788 14.0005 43.7113C14.0005 43.1437 14.4485 42.6831 15.0005 42.6831C17.7295 42.6831 19.7655 40.671 21.0515 36.7033C21.1885 36.2827 21.5695 36 22.0005 36C22.4315 36 22.8125 36.2827 22.9495 36.7033C24.2715 40.782 26.5125 42.6831 30.0005 42.6831C30.5535 42.6831 31.0005 43.1437 31.0005 43.7113C31.0005 44.2788 30.5535 44.7394 30.0005 44.7394Z"
            fill="#292F33" />
        <path
            d="M18.7115 45.4118C22.0755 48.8726 19.2095 51.5335 15.8435 54.9933C12.4785 58.4531 9.8895 61.4008 6.5245 57.9421C3.1585 54.4813 3.1585 48.8716 6.5245 45.4118C9.8905 41.951 15.3455 41.951 18.7115 45.4118Z"
            fill="#FFAC33" />
        <path
            d="M19.5423 46.7669C21.1263 48.3965 19.7903 52.4074 16.5593 55.7294C13.3283 59.0514 9.42732 60.4261 7.84232 58.7954C6.25832 57.1668 7.59432 53.1549 10.8243 49.8329C14.0563 46.5119 17.9583 45.1382 19.5423 46.7669Z"
            fill="#BE1931" />
        <path
            d="M25.2893 45.4118C21.9263 48.8726 24.7913 51.5335 28.1573 54.9933C31.5223 58.4531 34.1113 61.4008 37.4763 57.9421C40.8413 54.4813 40.8413 48.8716 37.4763 45.4118C34.1113 41.951 28.6563 41.951 25.2893 45.4118Z"
            fill="#FFAC33" />
        <path
            d="M24.4596 46.7669C22.8746 48.3965 24.2106 52.4074 27.4416 55.7294C30.6716 59.0514 34.5746 60.4261 36.1586 58.7954C37.7426 57.1668 36.4066 53.1549 33.1756 49.8329C29.9456 46.5119 26.0426 45.1382 24.4596 46.7669Z"
            fill="#BE1931" />
        <path
            d="M26.4106 54.22C26.6096 54.0555 26.8696 53.9692 27.1446 53.999C28.0116 54.0956 28.7426 54.4061 29.2536 54.8966C29.7946 55.4158 30.0606 56.1129 29.9876 56.811C29.8586 58.0356 28.6636 59.1604 26.6246 58.9342C25.8316 58.8468 25.4786 59.109 25.4666 59.2334C25.4526 59.3578 25.7436 59.692 26.5366 59.7804C27.4036 59.877 28.1346 60.1875 28.6456 60.678C29.1866 61.1972 29.4546 61.8943 29.3796 62.5924C29.2506 63.818 28.0556 64.9418 26.0186 64.7166C25.4406 64.6529 25.1356 64.7752 25.0066 64.8544C24.9036 64.9192 24.8626 64.9819 24.8586 65.0169C24.8466 65.1402 25.1336 65.4744 25.9286 65.5628C26.4776 65.6245 26.8756 66.1314 26.8156 66.6959C26.7566 67.2603 26.2646 67.6685 25.7136 67.6078C23.6766 67.3827 22.7406 66.0224 22.8696 64.7958C22.9986 63.5702 24.1936 62.4464 26.2326 62.6726C26.8106 62.7374 27.1136 62.614 27.2426 62.5349C27.3466 62.4711 27.3876 62.4084 27.3906 62.3734C27.4046 62.249 27.1156 61.9149 26.3206 61.8264C24.2836 61.6002 23.3476 60.241 23.4766 59.0144C23.6056 57.7888 24.8006 56.664 26.8376 56.8923C27.4156 56.956 27.7206 56.8326 27.8496 56.7535C27.9526 56.6897 27.9936 56.627 27.9976 56.592C28.0096 56.4676 27.7206 56.1335 26.9276 56.045C26.3786 55.9844 25.9806 55.4765 26.0406 54.912C26.0726 54.6282 26.2116 54.3856 26.4106 54.22Z"
            fill="#AA8DD8" />
        <path
            d="M19.2664 72.3231C17.2934 72.8958 15.9324 71.992 15.6084 70.8045C15.2844 69.618 15.9864 68.1158 17.9584 67.5452C18.7284 67.3231 18.9594 66.9447 18.9284 66.8244C18.8944 66.7021 18.5034 66.5036 17.7354 66.7257C15.7634 67.2974 14.4024 66.3926 14.0784 65.2051C13.7524 64.0175 14.4564 62.5174 16.4294 61.9468C17.1984 61.7237 17.4304 61.3443 17.3964 61.224C17.3634 61.1047 16.9734 60.9042 16.2044 61.1263C15.6744 61.2795 15.1204 60.9628 14.9714 60.4169C14.8234 59.8688 15.1324 59.3023 15.6644 59.1481C17.6354 58.5775 18.9974 59.4792 19.3234 60.6688C19.6474 61.8553 18.9444 63.3554 16.9714 63.9281C16.2014 64.1501 15.9704 64.5285 16.0044 64.6488C16.0364 64.7691 16.4264 64.9696 17.1944 64.7475C19.1684 64.1759 20.5284 65.0786 20.8534 66.2682C21.1784 67.4537 20.4754 68.9538 18.5014 69.5265C17.7334 69.7475 17.5024 70.129 17.5344 70.2472C17.5684 70.3685 17.9574 70.568 18.7264 70.3469C19.2584 70.1917 19.8094 70.5104 19.9594 71.0564C20.1084 71.6023 19.7984 72.1709 19.2664 72.3231Z"
            fill="#77B255" />
        <path
            d="M6.50049 65.3028C7.32892 65.3028 8.00049 64.6123 8.00049 63.7605C8.00049 62.9088 7.32892 62.2183 6.50049 62.2183C5.67206 62.2183 5.00049 62.9088 5.00049 63.7605C5.00049 64.6123 5.67206 65.3028 6.50049 65.3028Z"
            fill="#5C913B" />
        <path
            d="M11.0005 69.4154C12.1051 69.4154 13.0005 68.4948 13.0005 67.3591C13.0005 66.2234 12.1051 65.3027 11.0005 65.3027C9.89592 65.3027 9.00049 66.2234 9.00049 67.3591C9.00049 68.4948 9.89592 69.4154 11.0005 69.4154Z"
            fill="#9266CC" />
        <path
            d="M34.0005 65.3029C35.1051 65.3029 36.0005 64.3822 36.0005 63.2465C36.0005 62.1108 35.1051 61.1902 34.0005 61.1902C32.8959 61.1902 32.0005 62.1108 32.0005 63.2465C32.0005 64.3822 32.8959 65.3029 34.0005 65.3029Z"
            fill="#9266CC" />
        <path
            d="M29.5005 69.4156C30.3289 69.4156 31.0005 68.7251 31.0005 67.8733C31.0005 67.0215 30.3289 66.3311 29.5005 66.3311C28.6721 66.3311 28.0005 67.0215 28.0005 67.8733C28.0005 68.7251 28.6721 69.4156 29.5005 69.4156Z"
            fill="#5C913B" />
        <path
            d="M21.5005 57.0774C22.3289 57.0774 23.0005 56.3869 23.0005 55.5352C23.0005 54.6834 22.3289 53.9929 21.5005 53.9929C20.6721 53.9929 20.0005 54.6834 20.0005 55.5352C20.0005 56.3869 20.6721 57.0774 21.5005 57.0774Z"
            fill="#5C913B" />
        <path
            d="M11.0005 61.1901C12.1051 61.1901 13.0005 60.2694 13.0005 59.1337C13.0005 57.998 12.1051 57.0774 11.0005 57.0774C9.89592 57.0774 9.00049 57.998 9.00049 59.1337C9.00049 60.2694 9.89592 61.1901 11.0005 61.1901Z"
            fill="#FFCC4D" />
        <path
            d="M31.5005 53.993C32.3289 53.993 33.0005 53.3025 33.0005 52.4507C33.0005 51.5989 32.3289 50.9084 31.5005 50.9084C30.6721 50.9084 30.0005 51.5989 30.0005 52.4507C30.0005 53.3025 30.6721 53.993 31.5005 53.993Z"
            fill="#FFCC4D" />
        <path
            d="M16.5005 51.9368C17.3289 51.9368 18.0005 51.2463 18.0005 50.3945C18.0005 49.5428 17.3289 48.8523 16.5005 48.8523C15.6721 48.8523 15.0005 49.5428 15.0005 50.3945C15.0005 51.2463 15.6721 51.9368 16.5005 51.9368Z"
            fill="#FFCC4D" />
    </g>
    <defs>
        <filter id="filter0_d_75_1258" x="0" y="0" width="240.001" height="161"
            filterUnits="userSpaceOnUse" color-interpolation-filters="sRGB">
            <feFlood flood-opacity="0" result="BackgroundImageFix" />
            <feColorMatrix in="SourceAlpha" type="matrix"
                values="0 0 0 0 0 0 0 0 0 0 0 0 0 0 0 0 0 0 127 0" result="hardAlpha" />
            <feOffset dy="4" />
            <feGaussianBlur stdDeviation="2" />
            <feComposite in2="hardAlpha" operator="out" />
            <feColorMatrix type="matrix" values="0 0 0 0 0 0 0 0 0 0 0 0 0 0 0 0 0 0 0.25 0" />
            <feBlend mode="normal" in2="BackgroundImageFix" result="effect1_dropShadow_75_1258" />
            <feBlend mode="normal" in="SourceGraphic" in2="effect1_dropShadow_75_1258"
                result="shape" />
        </filter>
        <filter id="filter1_d_75_1258" x="98.1436" y="36" width="43.8564" height="44"
            filterUnits="userSpaceOnUse" color-interpolation-filters="sRGB">
            <feFlood flood-opacity="0" result="BackgroundImageFix" />
            <feColorMatrix in="SourceAlpha" type="matrix"
                values="0 0 0 0 0 0 0 0 0 0 0 0 0 0 0 0 0 0 127 0" result="hardAlpha" />
            <feOffset dy="4" />
            <feGaussianBlur stdDeviation="2" />
            <feComposite in2="hardAlpha" operator="out" />
            <feColorMatrix type="matrix" values="0 0 0 0 0 0 0 0 0 0 0 0 0 0 0 0 0 0 0.25 0" />
            <feBlend mode="normal" in2="BackgroundImageFix" result="effect1_dropShadow_75_1258" />
            <feBlend mode="normal" in="SourceGraphic" in2="effect1_dropShadow_75_1258"
                result="shape" />
        </filter>
    </defs>
</svg>
