<svg width="231" height="161" viewBox="0 0 231 161" fill="none" xmlns="http://www.w3.org/2000/svg">
    <g filter="url(#filter0_d_73_345)">
        <path
            d="M107.517 6.97774L107.517 6.97759C109.854 3.86308 112.763 2.5 115.479 2.5C118.195 2.5 121.104 3.86308 123.441 6.97759L123.441 6.97771L223.95 140.914C224.803 143.489 224.649 145.757 223.596 147.317C222.537 148.887 220.046 150.5 214.534 150.5H16.4306C10.854 150.5 8.41445 148.976 7.39089 147.487C6.3741 146.007 6.18797 143.755 7.03572 140.873L107.517 6.97774Z"
            fill="#FFCC4D" stroke="#FFA118" stroke-width="5" />
        <path
            d="M81.6172 84.5078V76.625H83.9531V84.5078C83.9531 85.2682 83.7865 85.9219 83.4531 86.4688C83.1198 87.0104 82.6641 87.4271 82.0859 87.7188C81.513 88.0104 80.8672 88.1562 80.1484 88.1562C79.4036 88.1562 78.7448 88.0312 78.1719 87.7812C77.599 87.5312 77.1484 87.1484 76.8203 86.6328C76.4922 86.112 76.3281 85.4531 76.3281 84.6562H78.6797C78.6797 85.0729 78.737 85.4036 78.8516 85.6484C78.9714 85.8932 79.1406 86.0677 79.3594 86.1719C79.5781 86.276 79.8411 86.3281 80.1484 86.3281C80.4453 86.3281 80.7031 86.2578 80.9219 86.1172C81.1406 85.9766 81.3099 85.7708 81.4297 85.5C81.5547 85.2292 81.6172 84.8984 81.6172 84.5078ZM83.4175 89.2L84.0895 88.528L84.9055 89.328L85.6895 88.544L86.4415 89.296L85.6575 90.08L86.4575 90.896L85.7855 91.568L84.9695 90.768L84.1855 91.552L83.4335 90.8L84.2175 90.016L83.4175 89.2ZM83.3055 76.288L83.9775 75.6L84.9375 76.56L85.8815 75.6L86.5695 76.288L85.6095 77.232L86.5695 78.192L85.8815 78.864L84.9375 77.92L83.9775 78.864L83.3055 78.192L84.2495 77.232L83.3055 76.288ZM95.2969 82.0469V82.5859C95.2969 83.4505 95.1797 84.2266 94.9453 84.9141C94.7109 85.6016 94.3802 86.1875 93.9531 86.6719C93.526 87.151 93.0156 87.5182 92.4219 87.7734C91.8333 88.0286 91.1797 88.1562 90.4609 88.1562C89.7474 88.1562 89.0938 88.0286 88.5 87.7734C87.9115 87.5182 87.401 87.151 86.9688 86.6719C86.5365 86.1875 86.2005 85.6016 85.9609 84.9141C85.7266 84.2266 85.6094 83.4505 85.6094 82.5859V82.0469C85.6094 81.1771 85.7266 80.401 85.9609 79.7188C86.1953 79.0312 86.526 78.4453 86.9531 77.9609C87.3854 77.4766 87.8958 77.1068 88.4844 76.8516C89.0781 76.5964 89.7318 76.4688 90.4453 76.4688C91.1641 76.4688 91.8177 76.5964 92.4062 76.8516C93 77.1068 93.5104 77.4766 93.9375 77.9609C94.3698 78.4453 94.7031 79.0312 94.9375 79.7188C95.1771 80.401 95.2969 81.1771 95.2969 82.0469ZM92.9297 82.5859V82.0312C92.9297 81.4271 92.875 80.8958 92.7656 80.4375C92.6562 79.9792 92.4948 79.5938 92.2812 79.2812C92.0677 78.9688 91.8073 78.7344 91.5 78.5781C91.1927 78.4167 90.8411 78.3359 90.4453 78.3359C90.0495 78.3359 89.6979 78.4167 89.3906 78.5781C89.0885 78.7344 88.8307 78.9688 88.6172 79.2812C88.4089 79.5938 88.25 79.9792 88.1406 80.4375C88.0312 80.8958 87.9766 81.4271 87.9766 82.0312V82.5859C87.9766 83.1849 88.0312 83.7161 88.1406 84.1797C88.25 84.638 88.4115 85.026 88.625 85.3438C88.8385 85.6562 89.099 85.8932 89.4062 86.0547C89.7135 86.2161 90.0651 86.2969 90.4609 86.2969C90.8568 86.2969 91.2083 86.2161 91.5156 86.0547C91.8229 85.8932 92.0807 85.6562 92.2891 85.3438C92.4974 85.026 92.6562 84.638 92.7656 84.1797C92.875 83.7161 92.9297 83.1849 92.9297 82.5859ZM94.4487 89.2L95.1207 88.528L95.9367 89.328L96.7208 88.544L97.4728 89.296L96.6888 90.08L97.4888 90.896L96.8168 91.568L96.0008 90.768L95.2167 91.552L94.4647 90.8L95.2487 90.016L94.4487 89.2ZM94.3367 76.288L95.0087 75.6L95.9688 76.56L96.9128 75.6L97.6008 76.288L96.6408 77.232L97.6008 78.192L96.9128 78.864L95.9688 77.92L95.0087 78.864L94.3367 78.192L95.2807 77.232L94.3367 76.288ZM106 82.0547V86.5625C105.823 86.776 105.549 87.0078 105.18 87.2578C104.81 87.5026 104.333 87.7135 103.75 87.8906C103.167 88.0677 102.461 88.1562 101.633 88.1562C100.898 88.1562 100.229 88.0365 99.625 87.7969C99.0208 87.5521 98.5 87.1953 98.0625 86.7266C97.6302 86.2578 97.2969 85.6849 97.0625 85.0078C96.8281 84.3255 96.7109 83.5469 96.7109 82.6719V81.9609C96.7109 81.0859 96.8229 80.3073 97.0469 79.625C97.276 78.9427 97.6016 78.3672 98.0234 77.8984C98.4453 77.4297 98.9479 77.0729 99.5312 76.8281C100.115 76.5833 100.763 76.4609 101.477 76.4609C102.466 76.4609 103.279 76.6224 103.914 76.9453C104.549 77.263 105.034 77.7057 105.367 78.2734C105.706 78.8359 105.914 79.4818 105.992 80.2109H103.719C103.661 79.8255 103.552 79.4896 103.391 79.2031C103.229 78.9167 102.997 78.6927 102.695 78.5312C102.398 78.3698 102.013 78.2891 101.539 78.2891C101.148 78.2891 100.799 78.3698 100.492 78.5312C100.19 78.6875 99.9349 78.9193 99.7266 79.2266C99.5182 79.5339 99.3594 79.9141 99.25 80.3672C99.1406 80.8203 99.0859 81.3464 99.0859 81.9453V82.6719C99.0859 83.2656 99.1432 83.7917 99.2578 84.25C99.3724 84.7031 99.5417 85.0859 99.7656 85.3984C99.9948 85.7057 100.276 85.9375 100.609 86.0938C100.943 86.25 101.331 86.3281 101.773 86.3281C102.143 86.3281 102.451 86.2969 102.695 86.2344C102.945 86.1719 103.146 86.0964 103.297 86.0078C103.453 85.9141 103.573 85.8255 103.656 85.7422V83.7266H101.516V82.0547H106ZM105.355 89.2L106.027 88.528L106.843 89.328L107.627 88.544L108.379 89.296L107.595 90.08L108.395 90.896L107.723 91.568L106.907 90.768L106.123 91.552L105.371 90.8L106.155 90.016L105.355 89.2ZM105.243 76.288L105.915 75.6L106.875 76.56L107.819 75.6L108.507 76.288L107.547 77.232L108.507 78.192L107.819 78.864L106.875 77.92L105.915 78.864L105.243 78.192L106.187 77.232L105.243 76.288ZM117.234 82.0469V82.5859C117.234 83.4505 117.117 84.2266 116.883 84.9141C116.648 85.6016 116.318 86.1875 115.891 86.6719C115.464 87.151 114.953 87.5182 114.359 87.7734C113.771 88.0286 113.117 88.1562 112.398 88.1562C111.685 88.1562 111.031 88.0286 110.438 87.7734C109.849 87.5182 109.339 87.151 108.906 86.6719C108.474 86.1875 108.138 85.6016 107.898 84.9141C107.664 84.2266 107.547 83.4505 107.547 82.5859V82.0469C107.547 81.1771 107.664 80.401 107.898 79.7188C108.133 79.0312 108.464 78.4453 108.891 77.9609C109.323 77.4766 109.833 77.1068 110.422 76.8516C111.016 76.5964 111.669 76.4688 112.383 76.4688C113.102 76.4688 113.755 76.5964 114.344 76.8516C114.938 77.1068 115.448 77.4766 115.875 77.9609C116.307 78.4453 116.641 79.0312 116.875 79.7188C117.115 80.401 117.234 81.1771 117.234 82.0469ZM114.867 82.5859V82.0312C114.867 81.4271 114.812 80.8958 114.703 80.4375C114.594 79.9792 114.432 79.5938 114.219 79.2812C114.005 78.9688 113.745 78.7344 113.438 78.5781C113.13 78.4167 112.779 78.3359 112.383 78.3359C111.987 78.3359 111.635 78.4167 111.328 78.5781C111.026 78.7344 110.768 78.9688 110.555 79.2812C110.346 79.5938 110.188 79.9792 110.078 80.4375C109.969 80.8958 109.914 81.4271 109.914 82.0312V82.5859C109.914 83.1849 109.969 83.7161 110.078 84.1797C110.188 84.638 110.349 85.026 110.562 85.3438C110.776 85.6562 111.036 85.8932 111.344 86.0547C111.651 86.2161 112.003 86.2969 112.398 86.2969C112.794 86.2969 113.146 86.2161 113.453 86.0547C113.76 85.8932 114.018 85.6562 114.227 85.3438C114.435 85.026 114.594 84.638 114.703 84.1797C114.812 83.7161 114.867 83.1849 114.867 82.5859ZM116.386 89.2L117.058 88.528L117.874 89.328L118.658 88.544L119.41 89.296L118.626 90.08L119.426 90.896L118.754 91.568L117.938 90.768L117.154 91.552L116.402 90.8L117.186 90.016L116.386 89.2ZM116.274 76.288L116.946 75.6L117.906 76.56L118.85 75.6L119.538 76.288L118.578 77.232L119.538 78.192L118.85 78.864L117.906 77.92L116.946 78.864L116.274 78.192L117.218 77.232L116.274 76.288ZM138.352 88H135.875L135.891 86.1719H138.352C138.966 86.1719 139.484 86.0339 139.906 85.7578C140.328 85.4766 140.646 85.0677 140.859 84.5312C141.078 83.9948 141.188 83.3464 141.188 82.5859V82.0312C141.188 81.4479 141.125 80.9349 141 80.4922C140.88 80.0495 140.701 79.6771 140.461 79.375C140.221 79.0729 139.927 78.8464 139.578 78.6953C139.229 78.5391 138.828 78.4609 138.375 78.4609H135.828V76.625H138.375C139.135 76.625 139.831 76.7552 140.461 77.0156C141.096 77.2708 141.646 77.638 142.109 78.1172C142.573 78.5964 142.93 79.1693 143.18 79.8359C143.435 80.4974 143.562 81.2344 143.562 82.0469V82.5859C143.562 83.3932 143.435 84.1302 143.18 84.7969C142.93 85.4635 142.573 86.0365 142.109 86.5156C141.651 86.9896 141.102 87.3568 140.461 87.6172C139.826 87.8724 139.122 88 138.352 88ZM137.203 76.625V88H134.859V76.625H137.203ZM142.73 89.2L143.402 88.528L144.218 89.328L145.002 88.544L145.754 89.296L144.97 90.08L145.77 90.896L145.098 91.568L144.282 90.768L143.498 91.552L142.746 90.8L143.53 90.016L142.73 89.2ZM142.618 76.288L143.29 75.6L144.25 76.56L145.194 75.6L145.882 76.288L144.922 77.232L145.882 78.192L145.194 78.864L144.25 77.92L143.29 78.864L142.618 78.192L143.562 77.232L142.618 76.288ZM149.891 78.5703L146.797 88H144.305L148.531 76.625H150.117L149.891 78.5703ZM152.461 88L149.359 78.5703L149.109 76.625H150.711L154.961 88H152.461ZM152.32 83.7656V85.6016H146.312V83.7656H152.32ZM153.48 89.2L154.152 88.528L154.968 89.328L155.752 88.544L156.504 89.296L155.72 90.08L156.52 90.896L155.848 91.568L155.032 90.768L154.248 91.552L153.496 90.8L154.28 90.016L153.48 89.2ZM153.368 76.288L154.04 75.6L155 76.56L155.944 75.6L156.632 76.288L155.672 77.232L156.632 78.192L155.944 78.864L155 77.92L154.04 78.864L153.368 78.192L154.312 77.232L153.368 76.288ZM74.125 97.5703L71.0312 107H68.5391L72.7656 95.625H74.3516L74.125 97.5703ZM76.6953 107L73.5938 97.5703L73.3438 95.625H74.9453L79.1953 107H76.6953ZM76.5547 102.766V104.602H70.5469V102.766H76.5547ZM77.7144 108.2L78.3864 107.528L79.2024 108.328L79.9864 107.544L80.7384 108.296L79.9544 109.08L80.7544 109.896L80.0824 110.568L79.2664 109.768L78.4824 110.552L77.7304 109.8L78.5144 109.016L77.7144 108.2ZM77.6024 95.288L78.2744 94.6L79.2344 95.56L80.1784 94.6L80.8664 95.288L79.9064 96.232L80.8664 97.192L80.1784 97.864L79.2344 96.92L78.2744 97.864L77.6024 97.192L78.5464 96.232L77.6024 95.288ZM85.3359 95.625V107H83V95.625H85.3359ZM88.8359 95.625V97.4609H79.5547V95.625H88.8359ZM87.6362 108.2L88.3082 107.528L89.1242 108.328L89.9083 107.544L90.6603 108.296L89.8763 109.08L90.6763 109.896L90.0043 110.568L89.1883 109.768L88.4042 110.552L87.6522 109.8L88.4362 109.016L87.6362 108.2ZM87.5242 95.288L88.1962 94.6L89.1562 95.56L90.1003 94.6L90.7883 95.288L89.8283 96.232L90.7883 97.192L90.1003 97.864L89.1562 96.92L88.1962 97.864L87.5242 97.192L88.4682 96.232L87.5242 95.288ZM97.8047 105.172V107H91.75V105.172H97.8047ZM92.5156 95.625V107H90.1719V95.625H92.5156ZM97.0156 100.258V102.039H91.75V100.258H97.0156ZM97.7969 95.625V97.4609H91.75V95.625H97.7969ZM96.6362 108.2L97.3082 107.528L98.1242 108.328L98.9083 107.544L99.6603 108.296L98.8763 109.08L99.6763 109.896L99.0043 110.568L98.1883 109.768L97.4042 110.552L96.6522 109.8L97.4362 109.016L96.6362 108.2ZM96.5242 95.288L97.1962 94.6L98.1562 95.56L99.1003 94.6L99.7883 95.288L98.8283 96.232L99.7883 97.192L99.1003 97.864L98.1562 96.92L97.1962 97.864L96.5242 97.192L97.4682 96.232L96.5242 95.288ZM108.43 95.625V107H106.086L101.516 99.375V107H99.1719V95.625H101.516L106.094 103.258V95.625H108.43ZM107.933 108.2L108.605 107.528L109.421 108.328L110.205 107.544L110.957 108.296L110.173 109.08L110.973 109.896L110.301 110.568L109.485 109.768L108.701 110.552L107.949 109.8L108.733 109.016L107.933 108.2ZM107.821 95.288L108.493 94.6L109.453 95.56L110.397 94.6L111.085 95.288L110.125 96.232L111.085 97.192L110.397 97.864L109.453 96.92L108.493 97.864L107.821 97.192L108.765 96.232L107.821 95.288ZM117.062 103.227H119.398C119.352 103.992 119.141 104.672 118.766 105.266C118.396 105.859 117.878 106.323 117.211 106.656C116.549 106.99 115.753 107.156 114.82 107.156C114.091 107.156 113.438 107.031 112.859 106.781C112.281 106.526 111.786 106.161 111.375 105.688C110.969 105.214 110.659 104.641 110.445 103.969C110.232 103.297 110.125 102.544 110.125 101.711V100.922C110.125 100.089 110.234 99.3359 110.453 98.6641C110.677 97.987 110.995 97.4115 111.406 96.9375C111.823 96.4635 112.32 96.099 112.898 95.8438C113.477 95.5885 114.122 95.4609 114.836 95.4609C115.784 95.4609 116.583 95.6328 117.234 95.9766C117.891 96.3203 118.398 96.7943 118.758 97.3984C119.122 98.0026 119.341 98.6901 119.414 99.4609H117.07C117.044 99.0026 116.953 98.6146 116.797 98.2969C116.641 97.974 116.404 97.7318 116.086 97.5703C115.773 97.4036 115.357 97.3203 114.836 97.3203C114.445 97.3203 114.104 97.3932 113.812 97.5391C113.521 97.6849 113.276 97.9062 113.078 98.2031C112.88 98.5 112.732 98.875 112.633 99.3281C112.539 99.776 112.492 100.302 112.492 100.906V101.711C112.492 102.299 112.536 102.818 112.625 103.266C112.714 103.708 112.849 104.083 113.031 104.391C113.219 104.693 113.458 104.922 113.75 105.078C114.047 105.229 114.404 105.305 114.82 105.305C115.31 105.305 115.714 105.227 116.031 105.07C116.349 104.914 116.591 104.682 116.758 104.375C116.93 104.068 117.031 103.685 117.062 103.227ZM113.984 106.969H115.68L115.594 107.43C115.891 107.482 116.161 107.607 116.406 107.805C116.651 108.003 116.773 108.328 116.773 108.781C116.773 109.057 116.714 109.307 116.594 109.531C116.479 109.755 116.307 109.948 116.078 110.109C115.849 110.276 115.562 110.401 115.219 110.484C114.875 110.573 114.479 110.617 114.031 110.617L113.977 109.367C114.143 109.367 114.294 109.344 114.43 109.297C114.565 109.25 114.672 109.177 114.75 109.078C114.828 108.984 114.867 108.859 114.867 108.703C114.867 108.557 114.828 108.443 114.75 108.359C114.672 108.276 114.549 108.214 114.383 108.172C114.221 108.13 114.008 108.102 113.742 108.086L113.984 106.969ZM125.562 97.5703L122.469 107H119.977L124.203 95.625H125.789L125.562 97.5703ZM128.133 107L125.031 97.5703L124.781 95.625H126.383L130.633 107H128.133ZM127.992 102.766V104.602H121.984V102.766H127.992ZM126.953 92.6172L128.25 92.7031C128.25 93.0833 128.174 93.4297 128.023 93.7422C127.872 94.0495 127.664 94.2969 127.398 94.4844C127.133 94.6667 126.828 94.7578 126.484 94.7578C126.234 94.7578 126.018 94.724 125.836 94.6562C125.659 94.5885 125.495 94.5104 125.344 94.4219C125.193 94.3281 125.036 94.2474 124.875 94.1797C124.719 94.112 124.539 94.0781 124.336 94.0781C124.154 94.0781 123.997 94.1432 123.867 94.2734C123.742 94.4036 123.68 94.5911 123.68 94.8359L122.375 94.7656C122.375 94.3906 122.451 94.0469 122.602 93.7344C122.753 93.4219 122.961 93.1719 123.227 92.9844C123.492 92.7917 123.794 92.6953 124.133 92.6953C124.346 92.6953 124.542 92.7318 124.719 92.8047C124.896 92.8724 125.065 92.9505 125.227 93.0391C125.393 93.1276 125.562 93.2057 125.734 93.2734C125.906 93.3411 126.089 93.375 126.281 93.375C126.464 93.375 126.62 93.3099 126.75 93.1797C126.885 93.0443 126.953 92.8568 126.953 92.6172ZM140.891 101.047V101.586C140.891 102.451 140.773 103.227 140.539 103.914C140.305 104.602 139.974 105.188 139.547 105.672C139.12 106.151 138.609 106.518 138.016 106.773C137.427 107.029 136.773 107.156 136.055 107.156C135.341 107.156 134.688 107.029 134.094 106.773C133.505 106.518 132.995 106.151 132.562 105.672C132.13 105.188 131.794 104.602 131.555 103.914C131.32 103.227 131.203 102.451 131.203 101.586V101.047C131.203 100.177 131.32 99.401 131.555 98.7188C131.789 98.0312 132.12 97.4453 132.547 96.9609C132.979 96.4766 133.49 96.1068 134.078 95.8516C134.672 95.5964 135.326 95.4688 136.039 95.4688C136.758 95.4688 137.411 95.5964 138 95.8516C138.594 96.1068 139.104 96.4766 139.531 96.9609C139.964 97.4453 140.297 98.0312 140.531 98.7188C140.771 99.401 140.891 100.177 140.891 101.047ZM138.523 101.586V101.031C138.523 100.427 138.469 99.8958 138.359 99.4375C138.25 98.9792 138.089 98.5938 137.875 98.2812C137.661 97.9688 137.401 97.7344 137.094 97.5781C136.786 97.4167 136.435 97.3359 136.039 97.3359C135.643 97.3359 135.292 97.4167 134.984 97.5781C134.682 97.7344 134.424 97.9688 134.211 98.2812C134.003 98.5938 133.844 98.9792 133.734 99.4375C133.625 99.8958 133.57 100.427 133.57 101.031V101.586C133.57 102.185 133.625 102.716 133.734 103.18C133.844 103.638 134.005 104.026 134.219 104.344C134.432 104.656 134.693 104.893 135 105.055C135.307 105.216 135.659 105.297 136.055 105.297C136.451 105.297 136.802 105.216 137.109 105.055C137.417 104.893 137.674 104.656 137.883 104.344C138.091 104.026 138.25 103.638 138.359 103.18C138.469 102.716 138.523 102.185 138.523 101.586ZM140.042 108.2L140.714 107.528L141.53 108.328L142.315 107.544L143.067 108.296L142.283 109.08L143.083 109.896L142.411 110.568L141.595 109.768L140.81 110.552L140.058 109.8L140.842 109.016L140.042 108.2ZM139.93 95.288L140.602 94.6L141.562 95.56L142.507 94.6L143.195 95.288L142.235 96.232L143.195 97.192L142.507 97.864L141.562 96.92L140.602 97.864L139.93 97.192L140.874 96.232L139.93 95.288ZM162.164 105.172V107H156.109V105.172H162.164ZM156.875 95.625V107H154.531V95.625H156.875ZM161.375 100.258V102.039H156.109V100.258H161.375ZM162.156 95.625V97.4609H156.109V95.625H162.156ZM160.996 108.2L161.668 107.528L162.484 108.328L163.268 107.544L164.02 108.296L163.236 109.08L164.036 109.896L163.364 110.568L162.548 109.768L161.764 110.552L161.012 109.8L161.796 109.016L160.996 108.2ZM160.884 95.288L161.556 94.6L162.516 95.56L163.46 94.6L164.148 95.288L163.188 96.232L164.148 97.192L163.46 97.864L162.516 96.92L161.556 97.864L160.884 97.192L161.828 96.232L160.884 95.288ZM59.8125 122.227H62.1484C62.1016 122.992 61.8906 123.672 61.5156 124.266C61.1458 124.859 60.6276 125.323 59.9609 125.656C59.2995 125.99 58.5026 126.156 57.5703 126.156C56.8411 126.156 56.1875 126.031 55.6094 125.781C55.0312 125.526 54.5365 125.161 54.125 124.688C53.7188 124.214 53.4089 123.641 53.1953 122.969C52.9818 122.297 52.875 121.544 52.875 120.711V119.922C52.875 119.089 52.9844 118.336 53.2031 117.664C53.4271 116.987 53.7448 116.411 54.1562 115.938C54.5729 115.464 55.0703 115.099 55.6484 114.844C56.2266 114.589 56.8724 114.461 57.5859 114.461C58.5339 114.461 59.3333 114.633 59.9844 114.977C60.6406 115.32 61.1484 115.794 61.5078 116.398C61.8724 117.003 62.0911 117.69 62.1641 118.461H59.8203C59.7943 118.003 59.7031 117.615 59.5469 117.297C59.3906 116.974 59.1536 116.732 58.8359 116.57C58.5234 116.404 58.1068 116.32 57.5859 116.32C57.1953 116.32 56.8542 116.393 56.5625 116.539C56.2708 116.685 56.026 116.906 55.8281 117.203C55.6302 117.5 55.4818 117.875 55.3828 118.328C55.2891 118.776 55.2422 119.302 55.2422 119.906V120.711C55.2422 121.299 55.2865 121.818 55.375 122.266C55.4635 122.708 55.599 123.083 55.7812 123.391C55.9688 123.693 56.2083 123.922 56.5 124.078C56.7969 124.229 57.1536 124.305 57.5703 124.305C58.0599 124.305 58.4635 124.227 58.7812 124.07C59.099 123.914 59.3411 123.682 59.5078 123.375C59.6797 123.068 59.7812 122.685 59.8125 122.227ZM61.1519 127.2L61.8239 126.528L62.6399 127.328L63.4239 126.544L64.1759 127.296L63.3919 128.08L64.1919 128.896L63.5199 129.568L62.7039 128.768L61.9199 129.552L61.1679 128.8L61.9519 128.016L61.1519 127.2ZM61.0399 114.288L61.7119 113.6L62.6719 114.56L63.6159 113.6L64.3039 114.288L63.3439 115.232L64.3039 116.192L63.6159 116.864L62.6719 115.92L61.7119 116.864L61.0399 116.192L61.9839 115.232L61.0399 114.288ZM73.0312 120.047V120.586C73.0312 121.451 72.9141 122.227 72.6797 122.914C72.4453 123.602 72.1146 124.188 71.6875 124.672C71.2604 125.151 70.75 125.518 70.1562 125.773C69.5677 126.029 68.9141 126.156 68.1953 126.156C67.4818 126.156 66.8281 126.029 66.2344 125.773C65.6458 125.518 65.1354 125.151 64.7031 124.672C64.2708 124.188 63.9349 123.602 63.6953 122.914C63.4609 122.227 63.3438 121.451 63.3438 120.586V120.047C63.3438 119.177 63.4609 118.401 63.6953 117.719C63.9297 117.031 64.2604 116.445 64.6875 115.961C65.1198 115.477 65.6302 115.107 66.2188 114.852C66.8125 114.596 67.4661 114.469 68.1797 114.469C68.8984 114.469 69.5521 114.596 70.1406 114.852C70.7344 115.107 71.2448 115.477 71.6719 115.961C72.1042 116.445 72.4375 117.031 72.6719 117.719C72.9115 118.401 73.0312 119.177 73.0312 120.047ZM70.6641 120.586V120.031C70.6641 119.427 70.6094 118.896 70.5 118.438C70.3906 117.979 70.2292 117.594 70.0156 117.281C69.8021 116.969 69.5417 116.734 69.2344 116.578C68.9271 116.417 68.5755 116.336 68.1797 116.336C67.7839 116.336 67.4323 116.417 67.125 116.578C66.8229 116.734 66.5651 116.969 66.3516 117.281C66.1432 117.594 65.9844 117.979 65.875 118.438C65.7656 118.896 65.7109 119.427 65.7109 120.031V120.586C65.7109 121.185 65.7656 121.716 65.875 122.18C65.9844 122.638 66.1458 123.026 66.3594 123.344C66.5729 123.656 66.8333 123.893 67.1406 124.055C67.4479 124.216 67.7995 124.297 68.1953 124.297C68.5911 124.297 68.9427 124.216 69.25 124.055C69.5573 123.893 69.8151 123.656 70.0234 123.344C70.2318 123.026 70.3906 122.638 70.5 122.18C70.6094 121.716 70.6641 121.185 70.6641 120.586ZM72.1831 127.2L72.8551 126.528L73.6711 127.328L74.4551 126.544L75.2071 127.296L74.4231 128.08L75.2231 128.896L74.5511 129.568L73.7351 128.768L72.9511 129.552L72.1991 128.8L72.9831 128.016L72.1831 127.2ZM72.0711 114.288L72.7431 113.6L73.7031 114.56L74.6471 113.6L75.3351 114.288L74.3751 115.232L75.3351 116.192L74.6471 116.864L73.7031 115.92L72.7431 116.864L72.0711 116.192L73.0151 115.232L72.0711 114.288ZM83.9766 114.625V126H81.6328L77.0625 118.375V126H74.7188V114.625H77.0625L81.6406 122.258V114.625H83.9766ZM83.48 127.2L84.152 126.528L84.968 127.328L85.752 126.544L86.504 127.296L85.72 128.08L86.52 128.896L85.848 129.568L85.032 128.768L84.248 129.552L83.496 128.8L84.28 128.016L83.48 127.2ZM83.368 114.288L84.04 113.6L85 114.56L85.944 113.6L86.632 114.288L85.672 115.232L86.632 116.192L85.944 116.864L85 115.92L84.04 116.864L83.368 116.192L84.312 115.232L83.368 114.288ZM92.6094 122.227H94.9453C94.8984 122.992 94.6875 123.672 94.3125 124.266C93.9427 124.859 93.4245 125.323 92.7578 125.656C92.0964 125.99 91.2995 126.156 90.3672 126.156C89.638 126.156 88.9844 126.031 88.4062 125.781C87.8281 125.526 87.3333 125.161 86.9219 124.688C86.5156 124.214 86.2057 123.641 85.9922 122.969C85.7786 122.297 85.6719 121.544 85.6719 120.711V119.922C85.6719 119.089 85.7812 118.336 86 117.664C86.224 116.987 86.5417 116.411 86.9531 115.938C87.3698 115.464 87.8672 115.099 88.4453 114.844C89.0234 114.589 89.6693 114.461 90.3828 114.461C91.3307 114.461 92.1302 114.633 92.7812 114.977C93.4375 115.32 93.9453 115.794 94.3047 116.398C94.6693 117.003 94.888 117.69 94.9609 118.461H92.6172C92.5911 118.003 92.5 117.615 92.3438 117.297C92.1875 116.974 91.9505 116.732 91.6328 116.57C91.3203 116.404 90.9036 116.32 90.3828 116.32C89.9922 116.32 89.651 116.393 89.3594 116.539C89.0677 116.685 88.8229 116.906 88.625 117.203C88.4271 117.5 88.2786 117.875 88.1797 118.328C88.0859 118.776 88.0391 119.302 88.0391 119.906V120.711C88.0391 121.299 88.0833 121.818 88.1719 122.266C88.2604 122.708 88.3958 123.083 88.5781 123.391C88.7656 123.693 89.0052 123.922 89.2969 124.078C89.5938 124.229 89.9505 124.305 90.3672 124.305C90.8568 124.305 91.2604 124.227 91.5781 124.07C91.8958 123.914 92.138 123.682 92.3047 123.375C92.4766 123.068 92.5781 122.685 92.6094 122.227ZM93.9487 127.2L94.6207 126.528L95.4367 127.328L96.2208 126.544L96.9728 127.296L96.1888 128.08L96.9888 128.896L96.3168 129.568L95.5008 128.768L94.7167 129.552L93.9647 128.8L94.7487 128.016L93.9487 127.2ZM93.8367 114.288L94.5087 113.6L95.4688 114.56L96.4128 113.6L97.1008 114.288L96.1408 115.232L97.1008 116.192L96.4128 116.864L95.4688 115.92L94.5087 116.864L93.8367 116.192L94.7807 115.232L93.8367 114.288ZM104.117 124.172V126H98.0625V124.172H104.117ZM98.8281 114.625V126H96.4844V114.625H98.8281ZM103.328 119.258V121.039H98.0625V119.258H103.328ZM104.109 114.625V116.461H98.0625V114.625H104.109ZM102.949 127.2L103.621 126.528L104.437 127.328L105.221 126.544L105.973 127.296L105.189 128.08L105.989 128.896L105.317 129.568L104.501 128.768L103.717 129.552L102.965 128.8L103.749 128.016L102.949 127.2ZM102.837 114.288L103.509 113.6L104.469 114.56L105.413 113.6L106.101 114.288L105.141 115.232L106.101 116.192L105.413 116.864L104.469 115.92L103.509 116.864L102.837 116.192L103.781 115.232L102.837 114.288ZM114.742 114.625V126H112.398L107.828 118.375V126H105.484V114.625H107.828L112.406 122.258V114.625H114.742ZM114.246 127.2L114.918 126.528L115.734 127.328L116.518 126.544L117.27 127.296L116.486 128.08L117.286 128.896L116.614 129.568L115.798 128.768L115.014 129.552L114.262 128.8L115.046 128.016L114.246 127.2ZM114.134 114.288L114.806 113.6L115.766 114.56L116.71 113.6L117.398 114.288L116.438 115.232L117.398 116.192L116.71 116.864L115.766 115.92L114.806 116.864L114.134 116.192L115.078 115.232L114.134 114.288ZM121.867 114.625V126H119.531V114.625H121.867ZM125.367 114.625V116.461H116.086V114.625H125.367ZM124.167 127.2L124.839 126.528L125.655 127.328L126.44 126.544L127.192 127.296L126.408 128.08L127.208 128.896L126.536 129.568L125.72 128.768L124.935 129.552L124.183 128.8L124.967 128.016L124.167 127.2ZM124.055 114.288L124.727 113.6L125.688 114.56L126.632 113.6L127.32 114.288L126.36 115.232L127.32 116.192L126.632 116.864L125.688 115.92L124.727 116.864L124.055 116.192L124.999 115.232L124.055 114.288ZM126.703 114.625H130.945C131.815 114.625 132.562 114.755 133.188 115.016C133.818 115.276 134.302 115.661 134.641 116.172C134.979 116.682 135.148 117.31 135.148 118.055C135.148 118.664 135.044 119.188 134.836 119.625C134.633 120.057 134.344 120.419 133.969 120.711C133.599 120.997 133.164 121.227 132.664 121.398L131.922 121.789H128.234L128.219 119.961H130.961C131.372 119.961 131.714 119.888 131.984 119.742C132.255 119.596 132.458 119.393 132.594 119.133C132.734 118.872 132.805 118.57 132.805 118.227C132.805 117.862 132.737 117.547 132.602 117.281C132.466 117.016 132.26 116.812 131.984 116.672C131.708 116.531 131.362 116.461 130.945 116.461H129.047V126H126.703V114.625ZM133.062 126L130.469 120.93L132.945 120.914L135.57 125.891V126H133.062ZM134.417 127.2L135.089 126.528L135.905 127.328L136.69 126.544L137.442 127.296L136.658 128.08L137.458 128.896L136.786 129.568L135.97 128.768L135.185 129.552L134.433 128.8L135.217 128.016L134.417 127.2ZM134.305 114.288L134.977 113.6L135.938 114.56L136.882 113.6L137.57 114.288L136.61 115.232L137.57 116.192L136.882 116.864L135.938 115.92L134.977 116.864L134.305 116.192L135.249 115.232L134.305 114.288ZM141.578 116.57L138.484 126H135.992L140.219 114.625H141.805L141.578 116.57ZM144.148 126L141.047 116.57L140.797 114.625H142.398L146.648 126H144.148ZM144.008 121.766V123.602H138V121.766H144.008ZM145.167 127.2L145.839 126.528L146.655 127.328L147.44 126.544L148.192 127.296L147.408 128.08L148.208 128.896L147.536 129.568L146.72 128.768L145.935 129.552L145.183 128.8L145.967 128.016L145.167 127.2ZM145.055 114.288L145.727 113.6L146.688 114.56L147.632 113.6L148.32 114.288L147.36 115.232L148.32 116.192L147.632 116.864L146.688 115.92L145.727 116.864L145.055 116.192L145.999 115.232L145.055 114.288ZM154.297 122.227H156.633C156.586 122.992 156.375 123.672 156 124.266C155.63 124.859 155.112 125.323 154.445 125.656C153.784 125.99 152.987 126.156 152.055 126.156C151.326 126.156 150.672 126.031 150.094 125.781C149.516 125.526 149.021 125.161 148.609 124.688C148.203 124.214 147.893 123.641 147.68 122.969C147.466 122.297 147.359 121.544 147.359 120.711V119.922C147.359 119.089 147.469 118.336 147.688 117.664C147.911 116.987 148.229 116.411 148.641 115.938C149.057 115.464 149.555 115.099 150.133 114.844C150.711 114.589 151.357 114.461 152.07 114.461C153.018 114.461 153.818 114.633 154.469 114.977C155.125 115.32 155.633 115.794 155.992 116.398C156.357 117.003 156.576 117.69 156.648 118.461H154.305C154.279 118.003 154.188 117.615 154.031 117.297C153.875 116.974 153.638 116.732 153.32 116.57C153.008 116.404 152.591 116.32 152.07 116.32C151.68 116.32 151.339 116.393 151.047 116.539C150.755 116.685 150.51 116.906 150.312 117.203C150.115 117.5 149.966 117.875 149.867 118.328C149.773 118.776 149.727 119.302 149.727 119.906V120.711C149.727 121.299 149.771 121.818 149.859 122.266C149.948 122.708 150.083 123.083 150.266 123.391C150.453 123.693 150.693 123.922 150.984 124.078C151.281 124.229 151.638 124.305 152.055 124.305C152.544 124.305 152.948 124.227 153.266 124.07C153.583 123.914 153.826 123.682 153.992 123.375C154.164 123.068 154.266 122.685 154.297 122.227ZM151.219 125.969H152.914L152.828 126.43C153.125 126.482 153.396 126.607 153.641 126.805C153.885 127.003 154.008 127.328 154.008 127.781C154.008 128.057 153.948 128.307 153.828 128.531C153.714 128.755 153.542 128.948 153.312 129.109C153.083 129.276 152.797 129.401 152.453 129.484C152.109 129.573 151.714 129.617 151.266 129.617L151.211 128.367C151.378 128.367 151.529 128.344 151.664 128.297C151.799 128.25 151.906 128.177 151.984 128.078C152.062 127.984 152.102 127.859 152.102 127.703C152.102 127.557 152.062 127.443 151.984 127.359C151.906 127.276 151.784 127.214 151.617 127.172C151.456 127.13 151.242 127.102 150.977 127.086L151.219 125.969ZM162.797 116.57L159.703 126H157.211L161.438 114.625H163.023L162.797 116.57ZM165.367 126L162.266 116.57L162.016 114.625H163.617L167.867 126H165.367ZM165.227 121.766V123.602H159.219V121.766H165.227ZM164.188 111.617L165.484 111.703C165.484 112.083 165.409 112.43 165.258 112.742C165.107 113.049 164.898 113.297 164.633 113.484C164.367 113.667 164.062 113.758 163.719 113.758C163.469 113.758 163.253 113.724 163.07 113.656C162.893 113.589 162.729 113.51 162.578 113.422C162.427 113.328 162.271 113.247 162.109 113.18C161.953 113.112 161.773 113.078 161.57 113.078C161.388 113.078 161.232 113.143 161.102 113.273C160.977 113.404 160.914 113.591 160.914 113.836L159.609 113.766C159.609 113.391 159.685 113.047 159.836 112.734C159.987 112.422 160.195 112.172 160.461 111.984C160.727 111.792 161.029 111.695 161.367 111.695C161.581 111.695 161.776 111.732 161.953 111.805C162.13 111.872 162.299 111.951 162.461 112.039C162.628 112.128 162.797 112.206 162.969 112.273C163.141 112.341 163.323 112.375 163.516 112.375C163.698 112.375 163.854 112.31 163.984 112.18C164.12 112.044 164.188 111.857 164.188 111.617ZM178.125 120.047V120.586C178.125 121.451 178.008 122.227 177.773 122.914C177.539 123.602 177.208 124.188 176.781 124.672C176.354 125.151 175.844 125.518 175.25 125.773C174.661 126.029 174.008 126.156 173.289 126.156C172.576 126.156 171.922 126.029 171.328 125.773C170.74 125.518 170.229 125.151 169.797 124.672C169.365 124.188 169.029 123.602 168.789 122.914C168.555 122.227 168.438 121.451 168.438 120.586V120.047C168.438 119.177 168.555 118.401 168.789 117.719C169.023 117.031 169.354 116.445 169.781 115.961C170.214 115.477 170.724 115.107 171.312 114.852C171.906 114.596 172.56 114.469 173.273 114.469C173.992 114.469 174.646 114.596 175.234 114.852C175.828 115.107 176.339 115.477 176.766 115.961C177.198 116.445 177.531 117.031 177.766 117.719C178.005 118.401 178.125 119.177 178.125 120.047ZM175.758 120.586V120.031C175.758 119.427 175.703 118.896 175.594 118.438C175.484 117.979 175.323 117.594 175.109 117.281C174.896 116.969 174.635 116.734 174.328 116.578C174.021 116.417 173.669 116.336 173.273 116.336C172.878 116.336 172.526 116.417 172.219 116.578C171.917 116.734 171.659 116.969 171.445 117.281C171.237 117.594 171.078 117.979 170.969 118.438C170.859 118.896 170.805 119.427 170.805 120.031V120.586C170.805 121.185 170.859 121.716 170.969 122.18C171.078 122.638 171.24 123.026 171.453 123.344C171.667 123.656 171.927 123.893 172.234 124.055C172.542 124.216 172.893 124.297 173.289 124.297C173.685 124.297 174.036 124.216 174.344 124.055C174.651 123.893 174.909 123.656 175.117 123.344C175.326 123.026 175.484 122.638 175.594 122.18C175.703 121.716 175.758 121.185 175.758 120.586ZM177.277 127.2L177.949 126.528L178.765 127.328L179.549 126.544L180.301 127.296L179.517 128.08L180.317 128.896L179.645 129.568L178.829 128.768L178.045 129.552L177.293 128.8L178.077 128.016L177.277 127.2ZM177.165 114.288L177.837 113.6L178.797 114.56L179.741 113.6L180.429 114.288L179.469 115.232L180.429 116.192L179.741 116.864L178.797 115.92L177.837 116.864L177.165 116.192L178.109 115.232L177.165 114.288Z"
            fill="black" />
        <path
            d="M113.789 27.1136L113.789 27.1135C114.151 26.5281 114.449 26.5 114.499 26.5C114.55 26.5 114.847 26.5281 115.209 27.1135L115.209 27.1136L135.29 59.5788L135.291 59.5798C135.463 59.8575 135.496 60.0348 135.5 60.109C135.502 60.1614 135.493 60.1721 135.489 60.1764C135.489 60.1768 135.489 60.1772 135.488 60.1775C135.465 60.2098 135.186 60.5 134.244 60.5H94.756C93.8138 60.5 93.5354 60.2099 93.5119 60.1775C93.5117 60.1772 93.5114 60.1768 93.511 60.1764C93.5072 60.1719 93.4978 60.1607 93.5004 60.1075C93.504 60.0328 93.537 59.8551 93.7086 59.5772C93.7086 59.5772 93.7087 59.5771 93.7087 59.577L113.789 27.1136Z"
            fill="#FFCC4D" stroke="#FFA118" stroke-width="3" />
        <path
            d="M112 53.8799C112 52.7117 113.122 51.7607 114.501 51.7607C115.878 51.7607 117 52.7117 117 53.8799C117 55.0491 115.877 56 114.501 56C113.122 56 112 55.0491 112 53.8799ZM112.192 37.8475C112.192 36.7064 113.186 36 114.499 36C115.782 36 116.808 36.7336 116.808 37.8475V48.3103C116.808 49.4242 115.782 50.1578 114.499 50.1578C113.186 50.1578 112.192 49.4505 112.192 48.3103V37.8475Z"
            fill="#231F20" />
    </g>
    <defs>
        <filter id="filter0_d_73_345" x="0" y="0" width="231" height="161"
            filterUnits="userSpaceOnUse" color-interpolation-filters="sRGB">
            <feFlood flood-opacity="0" result="BackgroundImageFix" />
            <feColorMatrix in="SourceAlpha" type="matrix"
                values="0 0 0 0 0 0 0 0 0 0 0 0 0 0 0 0 0 0 127 0" result="hardAlpha" />
            <feOffset dy="4" />
            <feGaussianBlur stdDeviation="2" />
            <feComposite in2="hardAlpha" operator="out" />
            <feColorMatrix type="matrix" values="0 0 0 0 0 0 0 0 0 0 0 0 0 0 0 0 0 0 0.25 0" />
            <feBlend mode="normal" in2="BackgroundImageFix" result="effect1_dropShadow_73_345" />
            <feBlend mode="normal" in="SourceGraphic" in2="effect1_dropShadow_73_345" result="shape" />
        </filter>
    </defs>
</svg>
