<svg width="40" height="40" viewBox="0 0 37 37" fill="none" xmlns="http://www.w3.org/2000/svg">
    <path
        d="M15.8734 2.37456C16.7575 0.399595 19.5625 0.403578 20.4403 2.38105L23.2016 8.60203C23.7084 9.74386 24.7855 10.5288 26.0278 10.6617L32.7957 11.3858C34.9471 11.616 35.8096 14.2849 34.2 15.7311L29.1364 20.2807C28.207 21.1158 27.7931 22.3829 28.0503 23.6054L29.452 30.266C29.8976 32.3832 27.6256 34.0287 25.7531 32.9451L19.8622 29.5359C18.781 28.9102 17.4481 28.9083 16.3649 29.5309L10.4632 32.9233C8.5872 34.0017 6.3205 32.3497 6.7728 30.2338L8.19572 23.5772C8.45689 22.3554 8.04702 21.0872 7.12028 20.2495L2.07114 15.6855C0.466168 14.2347 1.33722 11.5682 3.48929 11.3442L10.2596 10.6394C11.5022 10.51 12.5818 9.72806 13.0923 8.58768L15.8734 2.37456Z"
        fill="#F0F433" />
    <path
        d="M15.8734 2.37456C16.7575 0.399595 19.5625 0.403578 20.4403 2.38105L23.2016 8.60203C23.7084 9.74386 24.7855 10.5288 26.0278 10.6617L32.7957 11.3858C34.9471 11.616 35.8096 14.2849 34.2 15.7311L29.1364 20.2807C28.207 21.1158 27.7931 22.3829 28.0503 23.6054L29.452 30.266C29.8976 32.3832 27.6256 34.0287 25.7531 32.9451L19.8622 29.5359C18.781 28.9102 17.4481 28.9083 16.3649 29.5309L10.4632 32.9233C8.5872 34.0017 6.3205 32.3497 6.7728 30.2338L8.19572 23.5772C8.45689 22.3554 8.04702 21.0872 7.12028 20.2495L2.07114 15.6855C0.466168 14.2347 1.33722 11.5682 3.48929 11.3442L10.2596 10.6394C11.5022 10.51 12.5818 9.72806 13.0923 8.58768L15.8734 2.37456Z"
        fill="#F0F433" />
    <path
        d="M15.8734 2.37456C16.7575 0.399595 19.5625 0.403578 20.4403 2.38105L23.2016 8.60203C23.7084 9.74386 24.7855 10.5288 26.0278 10.6617L32.7957 11.3858C34.9471 11.616 35.8096 14.2849 34.2 15.7311L29.1364 20.2807C28.207 21.1158 27.7931 22.3829 28.0503 23.6054L29.452 30.266C29.8976 32.3832 27.6256 34.0287 25.7531 32.9451L19.8622 29.5359C18.781 28.9102 17.4481 28.9083 16.3649 29.5309L10.4632 32.9233C8.5872 34.0017 6.3205 32.3497 6.7728 30.2338L8.19572 23.5772C8.45689 22.3554 8.04702 21.0872 7.12028 20.2495L2.07114 15.6855C0.466168 14.2347 1.33722 11.5682 3.48929 11.3442L10.2596 10.6394C11.5022 10.51 12.5818 9.72806 13.0923 8.58768L15.8734 2.37456Z"
        fill="#F0F433" />
    <path
        d="M15.8734 2.37456C16.7575 0.399595 19.5625 0.403578 20.4403 2.38105L23.2016 8.60203C23.7084 9.74386 24.7855 10.5288 26.0278 10.6617L32.7957 11.3858C34.9471 11.616 35.8096 14.2849 34.2 15.7311L29.1364 20.2807C28.207 21.1158 27.7931 22.3829 28.0503 23.6054L29.452 30.266C29.8976 32.3832 27.6256 34.0287 25.7531 32.9451L19.8622 29.5359C18.781 28.9102 17.4481 28.9083 16.3649 29.5309L10.4632 32.9233C8.5872 34.0017 6.3205 32.3497 6.7728 30.2338L8.19572 23.5772C8.45689 22.3554 8.04702 21.0872 7.12028 20.2495L2.07114 15.6855C0.466168 14.2347 1.33722 11.5682 3.48929 11.3442L10.2596 10.6394C11.5022 10.51 12.5818 9.72806 13.0923 8.58768L15.8734 2.37456Z"
        fill="#F0F433" />
    <path
        d="M15.8734 2.37456C16.7575 0.399595 19.5625 0.403578 20.4403 2.38105L23.2016 8.60203C23.7084 9.74386 24.7855 10.5288 26.0278 10.6617L32.7957 11.3858C34.9471 11.616 35.8096 14.2849 34.2 15.7311L29.1364 20.2807C28.207 21.1158 27.7931 22.3829 28.0503 23.6054L29.452 30.266C29.8976 32.3832 27.6256 34.0287 25.7531 32.9451L19.8622 29.5359C18.781 28.9102 17.4481 28.9083 16.3649 29.5309L10.4632 32.9233C8.5872 34.0017 6.3205 32.3497 6.7728 30.2338L8.19572 23.5772C8.45689 22.3554 8.04702 21.0872 7.12028 20.2495L2.07114 15.6855C0.466168 14.2347 1.33722 11.5682 3.48929 11.3442L10.2596 10.6394C11.5022 10.51 12.5818 9.72806 13.0923 8.58768L15.8734 2.37456Z"
        fill="#F0F433" />
    <path
        d="M15.8734 2.37456C16.7575 0.399595 19.5625 0.403578 20.4403 2.38105L23.2016 8.60203C23.7084 9.74386 24.7855 10.5288 26.0278 10.6617L32.7957 11.3858C34.9471 11.616 35.8096 14.2849 34.2 15.7311L29.1364 20.2807C28.207 21.1158 27.7931 22.3829 28.0503 23.6054L29.452 30.266C29.8976 32.3832 27.6256 34.0287 25.7531 32.9451L19.8622 29.5359C18.781 28.9102 17.4481 28.9083 16.3649 29.5309L10.4632 32.9233C8.5872 34.0017 6.3205 32.3497 6.7728 30.2338L8.19572 23.5772C8.45689 22.3554 8.04702 21.0872 7.12028 20.2495L2.07114 15.6855C0.466168 14.2347 1.33722 11.5682 3.48929 11.3442L10.2596 10.6394C11.5022 10.51 12.5818 9.72806 13.0923 8.58768L15.8734 2.37456Z"
        fill="#F0F433" />
    <path
        d="M15.8734 2.37456C16.7575 0.399595 19.5625 0.403578 20.4403 2.38105L23.2016 8.60203C23.7084 9.74386 24.7855 10.5288 26.0278 10.6617L32.7957 11.3858C34.9471 11.616 35.8096 14.2849 34.2 15.7311L29.1364 20.2807C28.207 21.1158 27.7931 22.3829 28.0503 23.6054L29.452 30.266C29.8976 32.3832 27.6256 34.0287 25.7531 32.9451L19.8622 29.5359C18.781 28.9102 17.4481 28.9083 16.3649 29.5309L10.4632 32.9233C8.5872 34.0017 6.3205 32.3497 6.7728 30.2338L8.19572 23.5772C8.45689 22.3554 8.04702 21.0872 7.12028 20.2495L2.07114 15.6855C0.466168 14.2347 1.33722 11.5682 3.48929 11.3442L10.2596 10.6394C11.5022 10.51 12.5818 9.72806 13.0923 8.58768L15.8734 2.37456Z"
        fill="#F0F433" />
    <path
        d="M15.8734 2.37456C16.7575 0.399595 19.5625 0.403578 20.4403 2.38105L23.2016 8.60203C23.7084 9.74386 24.7855 10.5288 26.0278 10.6617L32.7957 11.3858C34.9471 11.616 35.8096 14.2849 34.2 15.7311L29.1364 20.2807C28.207 21.1158 27.7931 22.3829 28.0503 23.6054L29.452 30.266C29.8976 32.3832 27.6256 34.0287 25.7531 32.9451L19.8622 29.5359C18.781 28.9102 17.4481 28.9083 16.3649 29.5309L10.4632 32.9233C8.5872 34.0017 6.3205 32.3497 6.7728 30.2338L8.19572 23.5772C8.45689 22.3554 8.04702 21.0872 7.12028 20.2495L2.07114 15.6855C0.466168 14.2347 1.33722 11.5682 3.48929 11.3442L10.2596 10.6394C11.5022 10.51 12.5818 9.72806 13.0923 8.58768L15.8734 2.37456Z"
        fill="#F0F433" />
    <path
        d="M15.8734 2.37456C16.7575 0.399595 19.5625 0.403578 20.4403 2.38105L23.2016 8.60203C23.7084 9.74386 24.7855 10.5288 26.0278 10.6617L32.7957 11.3858C34.9471 11.616 35.8096 14.2849 34.2 15.7311L29.1364 20.2807C28.207 21.1158 27.7931 22.3829 28.0503 23.6054L29.452 30.266C29.8976 32.3832 27.6256 34.0287 25.7531 32.9451L19.8622 29.5359C18.781 28.9102 17.4481 28.9083 16.3649 29.5309L10.4632 32.9233C8.5872 34.0017 6.3205 32.3497 6.7728 30.2338L8.19572 23.5772C8.45689 22.3554 8.04702 21.0872 7.12028 20.2495L2.07114 15.6855C0.466168 14.2347 1.33722 11.5682 3.48929 11.3442L10.2596 10.6394C11.5022 10.51 12.5818 9.72806 13.0923 8.58768L15.8734 2.37456Z"
        fill="#F0F433" />
    <path
        d="M15.8734 2.37456C16.7575 0.399595 19.5625 0.403578 20.4403 2.38105L23.2016 8.60203C23.7084 9.74386 24.7855 10.5288 26.0278 10.6617L32.7957 11.3858C34.9471 11.616 35.8096 14.2849 34.2 15.7311L29.1364 20.2807C28.207 21.1158 27.7931 22.3829 28.0503 23.6054L29.452 30.266C29.8976 32.3832 27.6256 34.0287 25.7531 32.9451L19.8622 29.5359C18.781 28.9102 17.4481 28.9083 16.3649 29.5309L10.4632 32.9233C8.5872 34.0017 6.3205 32.3497 6.7728 30.2338L8.19572 23.5772C8.45689 22.3554 8.04702 21.0872 7.12028 20.2495L2.07114 15.6855C0.466168 14.2347 1.33722 11.5682 3.48929 11.3442L10.2596 10.6394C11.5022 10.51 12.5818 9.72806 13.0923 8.58768L15.8734 2.37456Z"
        stroke="#727400" />
</svg>
