<svg width="40" height="40" viewBox="0 0 44 44" fill="none" xmlns="http://www.w3.org/2000/svg">
<path d="M27.1081 15.6242L27.0254 15.3901L21.98 1.09567L21.98 1.0955C21.8683 0.778877 21.4937 0.5 21 0.5C20.5063 0.5 20.1317 0.778878 20.02 1.0955L20.02 1.09562L14.9761 15.3901L14.8935 15.6242L14.657 15.6999L1.14435 20.0231C0.71544 20.1609 0.5 20.4839 0.5 20.7782C0.5 21.0721 0.71638 21.3968 1.1434 21.533L1.14387 21.5331L14.6494 25.8552L14.8886 25.9317L14.97 26.1693L20.0168 40.899L27.1081 15.6242ZM27.1081 15.6242L27.3446 15.6999M27.1081 15.6242L27.3446 15.6999M27.3446 15.6999L40.8553 20.023C40.8555 20.0231 40.8557 20.0231 40.8559 20.0232C41.2835 20.1611 41.5 20.4856 41.5 20.7782C41.5 21.073 41.2826 21.3965 40.8584 21.5316L40.8577 21.5318L27.3506 25.8538L27.1114 25.9304M27.3446 15.6999L27.1114 25.9304M27.1114 25.9304L27.03 26.168M27.1114 25.9304L27.03 26.168M27.03 26.168L21.9831 40.898C21.9831 40.8981 21.9831 40.8981 21.9831 40.8982C21.8732 41.2183 21.4976 41.5 21 41.5C20.5012 41.5 20.1269 41.2185 20.0169 40.8995L27.03 26.168Z" fill="#FFAC33" stroke="#B27926"/>
</svg>
