<svg width= "40" height="40" viewBox="0 0 35 30" fill="none" xmlns="http://www.w3.org/2000/svg">
    <path
        d="M24.3654 4.9655L24.6193 5.31032L24.9991 5.11239C25.8979 4.64395 26.9169 4.375 28 4.375C31.5899 4.375 34.5 7.28514 34.5 10.875C34.5 13.5716 32.8573 15.8853 30.5172 16.8691L30.1096 17.0405L30.2299 17.466C30.4024 18.0765 30.5 18.7147 30.5 19.375C30.5 23.2419 27.3669 26.375 23.5 26.375C21.4695 26.375 19.6473 25.5055 18.3669 24.1223L18 23.726L17.6331 24.1223C16.3527 25.5055 14.5295 26.375 12.5 26.375C8.76606 26.375 5.72189 23.4471 5.52025 19.7607L5.49832 19.3598L5.1021 19.2946C2.49187 18.8655 0.5 16.6043 0.5 13.875C0.5 11.2685 2.31577 9.08882 4.75306 8.52305L5.03231 8.45823L5.11744 8.18448C6.50227 3.73163 10.6561 0.5 15.563 0.5C19.1762 0.5 22.3729 2.25999 24.3654 4.9655Z"
        fill="#BDDDF4" stroke="#80B8DF" />
</svg>
