<svg width="40" height="40" viewBox="0 0 47 31" fill="none" xmlns="http://www.w3.org/2000/svg">
<path d="M28.7222 0L23.5 6.88908L16.9722 2.58298V8.61049L3.91667 6.88908L14.3611 13.7782L0 18.9441H15.6667L7.83333 29.2777L23.5 22.3887L37.8611 31L33.9444 18.9441H47L36.5556 13.7773L47 6.02752L31.3333 8.61049L28.7222 0Z" fill="#BB1A34"/>
<path d="M29.9155 11.0905L32.3438 10.6898L39.1667 9.56474L34.7526 12.8394L33.0306 14.118L35.1064 15.1435L38.9251 17.0331H31.1989L31.8164 18.9364L33.8413 25.1664L26.2103 20.5909L24.8317 19.7636L23.2807 20.4459L16.4396 23.4545L19.5807 19.3114L21.3067 17.0331H12.4863L17.3939 15.2662L20.1943 14.2604L17.9396 12.7716L13.9655 10.1517L18.1707 10.7061L21.0247 11.0828V7.45374L22.9177 8.70232L25.2599 10.2461L26.7391 8.29299L28.4011 6.09961" fill="#FCAB40"/>
<path d="M28.0849 12.272L29.0863 12.1064L31.9036 11.6422L30.0811 12.9946L29.3696 13.5223L30.226 13.9454L31.8031 14.7254H28.6136L28.8682 15.5115L29.7051 18.0833L26.5548 16.1946L25.9843 15.853L25.3445 16.1345L22.5206 17.3771L23.817 15.666L24.5299 14.7254H20.8887L22.9162 13.996L24.0716 13.5807L23.1408 12.9663L21.4997 11.8842L23.2348 12.1133L24.4137 12.2686V10.7712L25.1957 11.2861L26.1618 11.9236L26.7728 11.1179L27.4582 10.2117" fill="#F5F8FA"/>
</svg>
