<svg width="24" height="24" viewBox="0 0 34 34" fill="none" xmlns="http://www.w3.org/2000/svg">
    <path
        d="M30 1H4C2.343 1 1 2.343 1 4V30C1 31.657 2.343 33 4 33H30C31.657 33 33 31.657 33 30V4C33 2.343 31.657 1 30 1Z"
        fill="#CCD6DD" />
    <path
        d="M30 0H4C1.791 0 0 1.791 0 4V30C0 32.209 1.791 34 4 34H30C32.209 34 34 32.209 34 30V4C34 1.791 32.209 0 30 0ZM30 2C31.103 2 32 2.897 32 4V8H26V2H30ZM26 18H32V24H26V18ZM26 16V10H32V16H26ZM24 2V8H18V2H24ZM18 10H24V16H18V10ZM18 18H24V24H18V18ZM16 2V8H10V2H16ZM10 10H16V16H10V10ZM10 18H16V24H10V18ZM2 4C2 2.897 2.897 2 4 2H8V8H2V4ZM2 10H8V16H2V10ZM2 18H8V24H2V18ZM4 32C2.897 32 2 31.103 2 30V26H8V32H4ZM10 32V26H16V32H10ZM18 32V26H24V32H18ZM30 32H26V26H32V30C32 31.103 31.103 32 30 32Z"
        fill="#E1E8ED" />
    <path
        d="M3.998 32C3.678 32 3.353 31.924 3.052 31.761C2.079 31.238 1.716 30.025 2.239 29.052L9.239 16.052C9.538 15.495 10.084 15.113 10.709 15.021C11.335 14.929 11.967 15.139 12.414 15.586L18.49 21.662L28.228 3.072C28.74 2.094 29.949 1.715 30.927 2.229C31.906 2.741 32.283 3.95 31.771 4.929L20.771 25.929C20.476 26.493 19.93 26.882 19.301 26.979C18.674 27.07 18.035 26.866 17.585 26.416L11.485 20.317L5.761 30.948C5.4 31.619 4.71 32 3.998 32Z"
        fill="#DD2E44" />
</svg>
