<svg width="24" height="24" viewBox="0 0 24 24" fill="none" xmlns="http://www.w3.org/2000/svg">
<circle cx="12" cy="12" r="11.5" fill="#C1C1C1" stroke="#AAAAAA"/>
<path d="M12.7266 13.5234H10.7344C10.7396 13.0547 10.776 12.651 10.8438 12.3125C10.9167 11.9688 11.0391 11.6589 11.2109 11.3828C11.388 11.1068 11.6224 10.8333 11.9141 10.5625C12.1589 10.3438 12.3724 10.1354 12.5547 9.9375C12.737 9.73958 12.8802 9.53646 12.9844 9.32812C13.0885 9.11458 13.1406 8.8776 13.1406 8.61719C13.1406 8.3151 13.0938 8.0651 13 7.86719C12.9115 7.66406 12.776 7.51042 12.5938 7.40625C12.4167 7.30208 12.1927 7.25 11.9219 7.25C11.6979 7.25 11.4896 7.29948 11.2969 7.39844C11.1042 7.49219 10.9453 7.63802 10.8203 7.83594C10.7005 8.03385 10.638 8.29427 10.6328 8.61719H8.36719C8.38281 7.90365 8.54688 7.3151 8.85938 6.85156C9.17708 6.38281 9.60156 6.03646 10.1328 5.8125C10.6641 5.58333 11.2604 5.46875 11.9219 5.46875C12.651 5.46875 13.276 5.58854 13.7969 5.82812C14.3177 6.0625 14.7161 6.40885 14.9922 6.86719C15.2682 7.32031 15.4062 7.8724 15.4062 8.52344C15.4062 8.97656 15.3177 9.38021 15.1406 9.73438C14.9635 10.0833 14.7318 10.4089 14.4453 10.7109C14.1589 11.013 13.8438 11.3255 13.5 11.6484C13.2031 11.9141 13 12.1927 12.8906 12.4844C12.7865 12.776 12.7318 13.1224 12.7266 13.5234ZM10.5 15.9375C10.5 15.6042 10.6146 15.3281 10.8438 15.1094C11.0729 14.8854 11.3802 14.7734 11.7656 14.7734C12.1458 14.7734 12.4505 14.8854 12.6797 15.1094C12.9141 15.3281 13.0312 15.6042 13.0312 15.9375C13.0312 16.2604 12.9141 16.5339 12.6797 16.7578C12.4505 16.9818 12.1458 17.0938 11.7656 17.0938C11.3802 17.0938 11.0729 16.9818 10.8438 16.7578C10.6146 16.5339 10.5 16.2604 10.5 15.9375Z" fill="#7C7C7C"/>
</svg>
