<svg width="24" height="24" viewBox="0 0 24 24" fill="none" xmlns="http://www.w3.org/2000/svg">
    <path
        d="M21.3333 0H2.66667C1.194 0 0 1.194 0 2.66667V21.3333C0 22.806 1.194 24 2.66667 24H21.3333C22.806 24 24 22.806 24 21.3333V2.66667C24 1.194 22.806 0 21.3333 0Z"
        fill="#3B88C3" />
    <path
        d="M12.667 4.66675H11.3337C10.9657 4.66675 10.667 4.96541 10.667 5.33341V18.6667C10.667 19.0354 10.9657 19.3334 11.3337 19.3334H12.667C13.0357 19.3334 13.3337 19.0354 13.3337 18.6667V5.33341C13.3337 4.96541 13.0357 4.66675 12.667 4.66675Z"
        fill="white" />
    <path
        d="M17.7449 7.39335L18.4815 8.50468C18.6849 8.81135 18.6009 9.22535 18.2942 9.42868L7.17952 16.794C6.87219 16.9973 6.45886 16.9133 6.25552 16.6067L5.51886 15.4953C5.31552 15.188 5.39886 14.7747 5.70619 14.5713L16.8209 7.20668C17.1282 7.00268 17.5415 7.08668 17.7449 7.39335Z"
        fill="white" />
    <path
        d="M6.25535 7.39327L5.51868 8.50461C5.31535 8.81127 5.39935 9.22527 5.70602 9.42861L16.8207 16.7933C17.128 16.9966 17.5414 16.9126 17.7447 16.6059L18.4813 15.4946C18.6847 15.1873 18.6013 14.7739 18.294 14.5706L7.17935 7.20594C6.87202 7.00261 6.45868 7.08661 6.25535 7.39327Z"
        fill="white" />
</svg>
