<svg width="24" height="24" viewBox="0 0 24 24" fill="none" xmlns="http://www.w3.org/2000/svg">
    <path
        d="M21.3333 0H2.66667C1.194 0 0 1.194 0 2.66667V21.3333C0 22.806 1.194 24 2.66667 24H21.3333C22.806 24 24 22.806 24 21.3333V2.66667C24 1.194 22.806 0 21.3333 0Z"
        fill="#3B88C3" />
    <path
        d="M17.0495 7.52968C15.3395 7.33309 13.0755 9.73973 12.0062 10.6664C12.4122 11.1124 12.6975 11.303 12.7815 11.4137C12.8962 11.565 13.0614 11.7677 13.2681 11.9997C14.0921 11.2771 16.2295 9.47234 17.0495 9.47234C18.4429 9.47234 19.5762 10.6057 19.5762 11.999C19.5762 13.3923 18.4429 14.5257 17.0495 14.5257C15.4915 14.5257 13.3935 12.2217 12.7815 11.4137C12.4815 11.0163 9.76752 7.52968 6.96219 7.52968C4.49752 7.52968 2.49219 9.53501 2.49219 11.9997C2.49219 14.4643 4.49752 16.469 6.96219 16.469C9.1811 16.469 10.9502 14.2304 12.0062 13.3331C11.5595 12.8491 11.3189 12.7017 11.2302 12.5843C11.1295 12.4517 10.9169 12.1964 10.7449 11.9997C9.94228 12.6877 7.75152 14.5257 6.96219 14.5257C5.56885 14.5257 4.43552 13.3923 4.43552 11.999C4.43552 10.6057 5.56885 9.47234 6.96219 9.47234C8.52085 9.47234 10.6182 11.7763 11.2302 12.5843C11.5302 12.9817 14.2442 16.4683 17.0495 16.4683C19.5142 16.4683 21.5189 14.4637 21.5189 11.999C21.5195 9.53501 19.5149 7.52968 17.0495 7.52968Z"
        fill="white" />
</svg>
