<svg width="24" height="24" viewBox="0 0 24 24" fill="none" xmlns="http://www.w3.org/2000/svg">
    <path
        d="M21.3333 0H2.66667C1.194 0 0 1.194 0 2.66667V21.3333C0 22.806 1.194 24 2.66667 24H21.3333C22.806 24 24 22.806 24 21.3333V2.66667C24 1.194 22.806 0 21.3333 0Z"
        fill="#3B88C3" />
    <path
        d="M12.3221 21.2021C12.1466 21.3769 11.8637 21.3769 11.6881 21.2021L2.80352 12.3174C2.62799 12.1421 2.62799 11.858 2.80352 11.6827L11.6881 2.79795C11.8637 2.62269 12.1466 2.62269 12.3221 2.79795L21.2074 11.6827C21.3822 11.858 21.3822 12.1421 21.2074 12.3174L12.3221 21.2021Z"
        fill="white" />
</svg>
