<svg width="24" height="24" viewBox="0 0 24 24" fill="none" xmlns="http://www.w3.org/2000/svg">
    <path
        d="M24 21.3333C24 22.806 22.806 24 21.3333 24H2.66667C1.194 24 0 22.806 0 21.3333V2.66667C0 1.194 1.194 0 2.66667 0H21.3333C22.806 0 24 1.194 24 2.66667V21.3333Z"
        fill="#3B88C3" />
    <path
        d="M19.5832 10.2498H13.7498V4.4165C13.7498 3.44992 12.9664 2.6665 11.9998 2.6665C11.0333 2.6665 10.2498 3.44992 10.2498 4.4165V10.2498H4.4165C3.44992 10.2498 2.6665 11.0333 2.6665 11.9998C2.6665 12.9664 3.44992 13.7498 4.4165 13.7498H10.2498V19.5832C10.2498 20.5498 11.0333 21.3332 11.9998 21.3332C12.9664 21.3332 13.7498 20.5498 13.7498 19.5832V13.7498H19.5832C20.5498 13.7498 21.3332 12.9664 21.3332 11.9998C21.3332 11.0333 20.5498 10.2498 19.5832 10.2498Z"
        fill="white" />
</svg>
