<svg width="24" height="24" viewBox="0 0 24 24" fill="none" xmlns="http://www.w3.org/2000/svg">
    <path
        d="M24 21.3333C24 22.806 22.806 24 21.3333 24H2.66667C1.194 24 0 22.806 0 21.3333V2.66667C0 1.194 1.194 0 2.66667 0H21.3333C22.806 0 24 1.194 24 2.66667V21.3333Z"
        fill="#3B88C3" />
    <path
        d="M13.1853 4.88856C13.1853 5.54279 12.6544 6.07375 12.0002 6.07375C11.3459 6.07375 10.815 5.54279 10.815 4.88856V2.51819C10.815 1.86397 11.3459 1.33301 12.0002 1.33301C12.6544 1.33301 13.1853 1.86397 13.1853 2.51819V4.88856ZM13.1853 21.4812C13.1853 22.1354 12.6544 22.6663 12.0002 22.6663C11.3459 22.6663 10.815 22.1354 10.815 21.4812V19.1108C10.815 18.4566 11.3459 17.9256 12.0002 17.9256C12.6544 17.9256 13.1853 18.4566 13.1853 19.1108V21.4812ZM4.88905 10.8145C5.54327 10.8145 6.07424 11.3455 6.07424 11.9997C6.07424 12.6539 5.54327 13.1849 4.88905 13.1849H2.51868C1.86446 13.1849 1.3335 12.6539 1.3335 11.9997C1.3335 11.3455 1.86446 10.8145 2.51868 10.8145H4.88905ZM21.4816 10.8145C22.1359 10.8145 22.6668 11.3455 22.6668 11.9997C22.6668 12.6539 22.1359 13.1849 21.4816 13.1849H19.1113C18.4571 13.1849 17.9261 12.6539 17.9261 11.9997C17.9261 11.3455 18.4571 10.8145 19.1113 10.8145H21.4816ZM6.13409 16.1899C6.5969 15.7277 7.34713 15.7271 7.80994 16.1899C8.27276 16.6521 8.27276 17.4035 7.80994 17.8657L6.13409 19.5422C5.67127 20.0044 4.92046 20.0044 4.45824 19.5422C3.99542 19.0794 3.99542 18.3286 4.45824 17.8663L6.13409 16.1899ZM17.8662 4.45716C18.3291 3.99434 19.0793 3.99375 19.5421 4.45716C20.0049 4.91997 20.0049 5.67019 19.5421 6.1336L17.8662 7.80945C17.4034 8.27227 16.6526 8.27227 16.1904 7.80945C15.7276 7.34664 15.7276 6.59642 16.1904 6.13301L17.8662 4.45716ZM16.1904 17.8657C15.7282 17.4029 15.7276 16.6527 16.1904 16.1899C16.6526 15.7271 17.404 15.7271 17.8662 16.1899L19.5427 17.8657C20.0049 18.3286 20.0049 19.0794 19.5427 19.5416C19.0799 20.0044 18.3291 20.0044 17.8668 19.5416L16.1904 17.8657ZM12.0002 6.66634C9.05439 6.66634 6.66683 9.0539 6.66683 11.9997C6.66683 14.9449 9.05439 17.333 12.0002 17.333C14.9459 17.333 17.3335 14.9455 17.3335 11.9997C17.3335 9.05449 14.9459 6.66634 12.0002 6.66634ZM12.0002 14.9626C10.364 14.9626 9.0372 13.6364 9.0372 11.9997C9.0372 10.3629 10.364 9.03671 12.0002 9.03671C13.6369 9.03671 14.9631 10.3635 14.9631 11.9997C14.9631 13.6358 13.6369 14.9626 12.0002 14.9626ZM4.45764 6.1336C3.99483 5.67078 3.99424 4.92056 4.45764 4.45775C4.92046 3.99493 5.67068 3.99493 6.13409 4.45775L7.80994 6.1336C8.27276 6.59641 8.27276 7.34723 7.80994 7.80945C7.34713 8.27227 6.5969 8.27227 6.1335 7.80945L4.45764 6.1336Z"
        fill="white" />
</svg>
