<svg width="24" height="24" viewBox="0 0 24 24" fill="none" xmlns="http://www.w3.org/2000/svg">
    <path
        d="M24 21.3333C24 22.806 22.806 24 21.3333 24H2.66667C1.194 24 0 22.806 0 21.3333V2.66667C0 1.194 1.194 0 2.66667 0H21.3333C22.806 0 24 1.194 24 2.66667V21.3333Z"
        fill="#3B88C3" />
    <path
        d="M14.3527 12.0039L19.8447 6.51191C20.496 5.86125 20.496 4.80591 19.8447 4.15525C19.1933 3.50391 18.1387 3.50391 17.488 4.15525L11.996 9.64725L6.50401 4.15525C5.85334 3.50391 4.79734 3.50391 4.14734 4.15525C3.49601 4.80591 3.49601 5.86125 4.14734 6.51191L9.63934 12.0039L4.13401 17.5092C3.48267 18.1606 3.48267 19.2152 4.13401 19.8659C4.45934 20.1912 4.88601 20.3539 5.31267 20.3539C5.73934 20.3539 6.16601 20.1912 6.49134 19.8659L11.9967 14.3599L17.4887 19.8519C17.814 20.1772 18.2407 20.3399 18.6673 20.3399C19.094 20.3399 19.52 20.1772 19.846 19.8519C20.4973 19.2006 20.4973 18.1459 19.846 17.4952L14.3527 12.0039Z"
        fill="white" />
</svg>
