<svg width="30" height="25" viewBox="0 0 30 25" fill="none" xmlns="http://www.w3.org/2000/svg">
<path d="M29.992 7.69279C29.992 3.44414 26.2876 0 21.7188 0C18.9452 0 16.4977 1.27304 14.996 3.21884C13.4943 1.27304 11.0468 0 8.274 0C3.70435 0 0 3.44336 0 7.69279C0 8.29461 0.0821698 8.87773 0.223032 9.4398C2.39936 13.75 10.1973 22.5 14.996 25C19.7947 22.5 26.3929 15 29.7673 9.44058C30.0655 8.94923 29.992 8.29539 29.992 7.69279Z" fill="#DD2E44"/>
<path d="M14.6002 3.52432L14.996 4.03721L15.3918 3.52432C16.7983 1.70194 19.0992 0.5 21.7188 0.5C26.0464 0.5 29.492 3.75392 29.492 7.69279C29.492 7.81452 29.4943 7.9256 29.4964 8.0308C29.5004 8.22275 29.5039 8.39514 29.4925 8.57699C29.4758 8.84142 29.4286 9.03485 29.3398 9.18115C27.6727 11.9279 25.2009 15.1662 22.549 18.0277C19.9774 20.8027 17.272 23.1846 14.9964 24.4328C12.7048 23.1672 9.71466 20.4904 6.99253 17.5585C4.20373 14.5548 1.76468 11.3577 0.694746 9.2644C0.570804 8.75403 0.5 8.22987 0.5 7.69279C0.5 3.7532 3.94554 0.5 8.274 0.5C10.8928 0.5 13.1937 1.70192 14.6002 3.52432Z" stroke="black" stroke-opacity="0.2"/>
</svg>
