<svg width="30" height="25" viewBox="0 0 30 25" fill="none" xmlns="http://www.w3.org/2000/svg">
<path d="M22.5 19.2831C26.643 19.2831 30 16.8834 30 13.9235C30 10.9636 26.643 8.56392 22.5 8.56392C21.141 8.56392 19.869 8.82618 18.77 9.27853H18.56C20.607 8.40884 21.983 6.81669 21.983 4.99085C21.983 2.23459 18.857 0 15 0C11.143 0 8.016 2.23459 8.016 4.99085C8.016 6.81669 9.392 8.40884 11.439 9.27853H11.231C10.131 8.82618 8.86 8.56392 7.5 8.56392C3.358 8.56392 0 10.9636 0 13.9235C0 16.8834 3.358 19.2831 7.5 19.2831C9.655 19.2831 11.591 18.6299 12.96 17.5909C12.549 20.5358 8.205 22.8562 4 22.8562H4.5C3.671 22.8562 3 23.3364 3 23.9281C3 24.5198 3.671 25 4.5 25H25.5C26.328 25 27 24.5198 27 23.9281C27 23.3364 26.328 22.8562 25.5 22.8562H26C21.795 22.8562 17.451 20.5351 17.041 17.5902C18.408 18.6299 20.346 19.2831 22.5 19.2831Z" fill="#9B51E0"/>
<path d="M18.77 9.77853H18.8689L18.9603 9.74089C19.9975 9.314 21.2047 9.06392 22.5 9.06392C24.4793 9.06392 26.2499 9.63788 27.5129 10.5405C28.7769 11.4439 29.5 12.6468 29.5 13.9235C29.5 15.2002 28.7769 16.4032 27.5129 17.3065C26.2499 18.2091 24.4793 18.7831 22.5 18.7831C20.4423 18.7831 18.6139 18.1583 17.3437 17.1922L16.3786 16.4581L16.5458 17.6591C16.7816 19.353 18.1256 20.7785 19.8497 21.7618C21.4571 22.6786 23.4768 23.2622 25.5 23.3458V23.3562C25.8216 23.3562 26.0923 23.4502 26.2698 23.577C26.4483 23.7046 26.5 23.8357 26.5 23.9281C26.5 24.0205 26.4483 24.1515 26.2698 24.2791C26.0923 24.406 25.8216 24.5 25.5 24.5H4.5C4.17776 24.5 3.90718 24.4059 3.72992 24.2792C3.55171 24.1518 3.5 24.0208 3.5 23.9281C3.5 23.8354 3.55171 23.7044 3.72992 23.577C3.90718 23.4502 4.17776 23.3562 4.5 23.3562V23.3458C6.52318 23.2623 8.54285 22.6788 10.1504 21.7622C11.8746 20.7791 13.2188 19.3538 13.4552 17.66L13.6226 16.4603L12.6577 17.1926C11.3852 18.1584 9.55849 18.7831 7.5 18.7831C5.52125 18.7831 3.75063 18.2091 2.48746 17.3065C1.22333 16.4031 0.5 15.2002 0.5 13.9235C0.5 12.6468 1.22333 11.4439 2.48746 10.5405C3.75063 9.63787 5.52125 9.06392 7.5 9.06392C8.79628 9.06392 10.0025 9.31398 11.0408 9.74095L11.1322 9.77853H11.231H11.439L11.6345 8.81834C9.69312 7.99352 8.516 6.54233 8.516 4.99085C8.516 3.81602 9.18158 2.70527 10.3523 1.86863C11.5221 1.03268 13.1638 0.5 15 0.5C16.8362 0.5 18.4776 1.03268 19.6471 1.86861C20.8176 2.7052 21.483 3.81595 21.483 4.99085C21.483 6.54233 20.3059 7.99352 18.3645 8.81834L18.56 9.77853H18.77Z" stroke="black" stroke-opacity="0.2"/>
</svg>
