<svg width="30" height="25" viewBox="0 0 30 25" fill="none" xmlns="http://www.w3.org/2000/svg">
<path d="M13.436 17.7323L13.571 16.5754L12.6393 17.2743C10.4623 18.9074 7.39578 19.2154 4.85785 18.5141C2.29721 17.8066 0.5 16.1554 0.5 14.0621C0.5 12.6998 1.33438 11.1636 2.72022 9.57796C4.09182 8.00863 5.93369 6.46965 7.79501 5.10944C9.6531 3.75158 11.5137 2.58402 12.9113 1.75529C13.6096 1.3412 14.1912 1.01235 14.5976 0.78734C14.7616 0.69658 14.897 0.622737 15 0.56703C15.103 0.622737 15.2384 0.69658 15.4024 0.78734C15.8088 1.01235 16.3904 1.3412 17.0887 1.75529C18.4863 2.58402 20.3469 3.75158 22.205 5.10944C24.0663 6.46965 25.9082 8.00863 27.2798 9.57796C28.6656 11.1636 29.5 12.6998 29.5 14.0621C29.5 16.1554 27.7028 17.8066 25.1421 18.5141C22.6042 19.2154 19.5377 18.9074 17.3607 17.2743L16.4294 16.5758L16.564 17.7321C16.7611 19.4261 18.1257 20.8457 19.875 21.8208C21.5101 22.7321 23.5749 23.3125 25.6426 23.395V23.4051C25.9738 23.4051 26.2521 23.4986 26.4339 23.6238C26.6178 23.7505 26.663 23.8752 26.663 23.9526C26.663 24.0299 26.6178 24.1546 26.4339 24.2814C26.2521 24.4066 25.9738 24.5 25.6426 24.5H4.35739C4.02559 24.5 3.74736 24.4065 3.56586 24.2814C3.38222 24.1548 3.33702 24.0302 3.33702 23.9526C3.33702 23.8749 3.38222 23.7503 3.56586 23.6237C3.74736 23.4986 4.02559 23.4051 4.35739 23.4051V23.395C6.42552 23.3125 8.49011 22.7321 10.125 21.8207C11.8742 20.8457 13.2383 19.4261 13.436 17.7323Z" fill="#FFAC33" stroke="#B27926"/>
</svg>
