<svg width="30" height="25" viewBox="0 0 30 25" fill="none" xmlns="http://www.w3.org/2000/svg">
<path d="M0.531673 12.5411L0.531376 12.5409C0.512297 12.525 0.504929 12.5127 0.502354 12.5074C0.500951 12.5045 0.500418 12.5026 0.500213 12.5017L0.5 12.5003L0.500213 12.4988C0.500418 12.4979 0.500951 12.496 0.502354 12.4931C0.504929 12.4879 0.512297 12.4755 0.531376 12.4596L0.531672 12.4594L14.8102 0.560396C14.8102 0.560388 14.8103 0.56038 14.8103 0.560371C14.907 0.479896 15.0926 0.479876 15.1894 0.560311C15.1894 0.560339 15.1894 0.560368 15.1895 0.560396L29.4687 12.459C29.4688 12.4591 29.4689 12.4591 29.469 12.4592C29.4876 12.4748 29.4949 12.487 29.4975 12.4924C29.4985 12.4945 29.4991 12.4961 29.4995 12.4973C29.5001 12.4993 29.5 12.5002 29.5 12.5003C29.5 12.5003 29.5 12.5004 29.5 12.5007C29.4999 12.5016 29.4995 12.5039 29.4975 12.5081C29.4949 12.5135 29.4876 12.5257 29.469 12.5413C29.4689 12.5414 29.4688 12.5415 29.4687 12.5416L15.19 24.4397C15.19 24.4397 15.1899 24.4398 15.1898 24.4398C15.0929 24.5201 14.9069 24.5201 14.8099 24.4398C14.8098 24.4398 14.8097 24.4397 14.8097 24.4397L0.531673 12.5411Z" fill="#E73FB8" stroke="#B2008B"/>
</svg>
