<svg width="30" height="25" viewBox="0 0 30 25" fill="none" xmlns="http://www.w3.org/2000/svg">
<path d="M15.782 24.1265C15.0362 25.3104 13.8442 25.2881 13.1351 24.0765L0.326632 2.20359C-0.382449 0.990761 0.101715 0 1.40387 0H28.6307C29.9328 0 30.3862 0.968423 29.6416 2.15366L15.782 24.1265Z" fill="#3E50B4"/>
<path d="M15.3591 23.8597L15.3589 23.86C15.0474 24.3545 14.7064 24.5046 14.4542 24.4999C14.2013 24.4951 13.8636 24.3313 13.5666 23.824L13.5665 23.8239L0.758274 1.95123C0.758256 1.9512 0.758238 1.95117 0.75822 1.95114C0.450527 1.42481 0.466197 1.05896 0.560245 0.866557C0.644827 0.693516 0.874302 0.5 1.40387 0.5H28.6307C29.1674 0.5 29.3794 0.692051 29.451 0.844684C29.5326 1.01853 29.5441 1.36895 29.2184 1.88747C29.2183 1.88754 29.2183 1.88761 29.2183 1.88768L15.3591 23.8597Z" stroke="black" stroke-opacity="0.2"/>
</svg>
