<svg width="30" height="25" viewBox="0 0 30 25" fill="none" xmlns="http://www.w3.org/2000/svg">
<path d="M15.782 0.873526C15.0362 -0.310394 13.8442 -0.288056 13.1351 0.923458L0.326632 22.7964C-0.382449 24.0079 0.101714 25 1.40387 25H28.6307C29.9328 25 30.3862 24.0316 29.6416 22.8463L15.782 0.873526Z" fill="#009688"/>
<path d="M15.3589 1.14002L15.3591 1.14028L29.2183 23.1123C29.2183 23.1124 29.2183 23.1124 29.2183 23.1125C29.5441 23.631 29.5326 23.9815 29.451 24.1553C29.3794 24.3079 29.1674 24.5 28.6307 24.5H1.40387C0.874588 24.5 0.644972 24.3064 0.560281 24.133C0.466142 23.9404 0.450597 23.5745 0.758154 23.049L13.5665 1.17612L13.5666 1.17602C13.8636 0.668655 14.2013 0.504877 14.4542 0.500116C14.7064 0.495368 15.0474 0.645533 15.3589 1.14002Z" stroke="black" stroke-opacity="0.2"/>
</svg>
